<svg id="_1" data-name="1" xmlns="http://www.w3.org/2000/svg" width="173.79" height="64.39" viewBox="0 0 173.79 64.39"><defs><style>.cls-1{fill:#fff}.cls-2{fill:url(#Безымянный_градиент_3)}.cls-3{fill:url(#Безымянный_градиент_4)}.cls-4,.cls-5{fill:#76b237}.cls-4{opacity:.73}.cls-4,.cls-5,.cls-7{isolation:isolate}.cls-5{opacity:.4}.cls-6{fill:url(#Безымянный_градиент_5)}.cls-7{opacity:.13}.cls-8{fill:url(#Безымянный_градиент_6)}.cls-9{fill:url(#Безымянный_градиент_7)}.cls-10{fill:url(#Безымянный_градиент_8)}.cls-11{fill:url(#Безымянный_градиент_9)}.cls-12{fill:url(#Безымянный_градиент_10)}.cls-13{fill:#7d7d7d}</style><radialGradient id="Безымянный_градиент_3" cx="128.33" cy="34.04" r="30.42" gradientTransform="matrix(1 0 0 -1 0 65.44)" gradientUnits="userSpaceOnUse"><stop offset="0" stop-color="#fff"/><stop offset=".29" stop-color="#fff" stop-opacity=".37"/><stop offset=".7" stop-color="#c4e7f8" stop-opacity="0"/><stop offset="1" stop-color="#9dd8f3"/></radialGradient><radialGradient id="Безымянный_градиент_4" cx="243.46" cy="-319.18" r="36.84" gradientTransform="matrix(1 0 0 -1 -115.58 -287.38)" gradientUnits="userSpaceOnUse"><stop offset="0" stop-color="#76b237"/><stop offset="1" stop-color="#008678"/></radialGradient><radialGradient id="Безымянный_градиент_5" cx="127.94" cy="37.36" r="39.94" gradientTransform="matrix(1 0 0 -1 0 65.44)" gradientUnits="userSpaceOnUse"><stop offset="0" stop-color="#fff"/><stop offset=".29" stop-color="#fff" stop-opacity=".37"/><stop offset=".78" stop-color="#48a947" stop-opacity=".16"/><stop offset="1" stop-color="#008678" stop-opacity=".77"/></radialGradient><linearGradient id="Безымянный_градиент_6" x1="236.18" y1="-304.81" x2="273.64" y2="-304.94" gradientTransform="matrix(1 0 0 -1 -115.58 -287.38)" gradientUnits="userSpaceOnUse"><stop offset="0"/><stop offset=".34" stop-color="#7d7d7d"/><stop offset="1"/></linearGradient><linearGradient id="Безымянный_градиент_7" x1="120.6" y1="52.19" x2="158.07" y2="52.03" gradientTransform="matrix(1 0 0 -1 0 65.44)" gradientUnits="userSpaceOnUse"><stop offset="0"/><stop offset=".34" stop-color="#616060"/><stop offset="1"/></linearGradient><linearGradient id="Безымянный_градиент_8" x1="139.33" y1="65.44" x2="139.33" y2="47.18" gradientTransform="matrix(1 0 0 -1 0 65.44)" gradientUnits="userSpaceOnUse"><stop offset="0"/><stop offset="1" stop-color="#616060"/></linearGradient><linearGradient id="Безымянный_градиент_9" x1="104.9" y1="51.65" x2="173.74" y2="51" gradientTransform="matrix(1 0 0 -1 0 65.44)" gradientUnits="userSpaceOnUse"><stop offset="0"/><stop offset=".33" stop-color="#989797"/><stop offset=".49" stop-color="#fff"/><stop offset=".65" stop-color="#989797"/><stop offset="1"/></linearGradient><linearGradient id="Безымянный_градиент_10" x1="232.41" y1="-294.65" x2="243.33" y2="-311.71" gradientTransform="matrix(1 0 0 -1 -115.58 -287.38)" gradientUnits="userSpaceOnUse"><stop offset="0"/><stop offset=".65" stop-color="#454545"/><stop offset="1" stop-color="#989797" stop-opacity=".23"/></linearGradient></defs><title>123 logo2</title><path class="cls-1" d="M16.55 54.61H14v4.24h-.92v-5h4.33v5h-.87v-4.24zm6 4.3a6 6 0 0 1-.41.84 3 3 0 0 1-.48.63 2.1 2.1 0 0 1-.63.42 2.86 2.86 0 0 1-.81.21v-.84a1.87 1.87 0 0 0 .88-.45 2.63 2.63 0 0 0 .62-1l-2-5h.91l1.54 4 1.57-4h.9l-2.07 5.11zm5.28-.08v-4.24H26.1v-.79h4.3v.79h-1.7v4.24h-.87zm5.81-.83h1.19q1.29 0 1.29-.85t-1.29-.85h-1.19V58zm0-4.22v1.7h1.16a3 3 0 0 1 1.63.39 1.7 1.7 0 0 1 .17 2.4l-.17.17a3 3 0 0 1-1.63.38h-2v-5zm14.16 3a2.86 2.86 0 0 1-.66.44 1.91 1.91 0 0 1-.85.18A1.81 1.81 0 0 1 45 57a2 2 0 0 1-.51-1.5v-1.69h.87v1.63a1.22 1.22 0 0 0 .3.92 1.13 1.13 0 0 0 .81.29 1.52 1.52 0 0 0 .74-.18 2.3 2.3 0 0 0 .59-.47v-2.18h.87v5h-.87v-2zm4.52-.21a1.88 1.88 0 0 0 .21.73 1.49 1.49 0 0 0 .42.48 1.58 1.58 0 0 0 .57.26 2.74 2.74 0 0 0 .67.08 3.88 3.88 0 0 0 1-.12 3.39 3.39 0 0 0 .81-.29v.82a3.27 3.27 0 0 1-.88.32 4.56 4.56 0 0 1-1 .11 3.53 3.53 0 0 1-1-.15 2.35 2.35 0 0 1-.86-.48 2.26 2.26 0 0 1-.59-.83 3.05 3.05 0 0 1-.22-1.23 3.26 3.26 0 0 1 .18-1.1 2.42 2.42 0 0 1 .48-.84 2.17 2.17 0 0 1 .77-.53 2.54 2.54 0 0 1 1-.19 2.39 2.39 0 0 1 1 .21 2.1 2.1 0 0 1 .72.54 2.23 2.23 0 0 1 .42.76 2.86 2.86 0 0 1 .14.87v.61zm2.94-.76a1.47 1.47 0 0 0-.39-1 1.37 1.37 0 0 0-1-.4 1.4 1.4 0 0 0-1.49 1.43h2.93zm8.64-2.07h1v5H64v-3.61L62.3 58h-.88l-1.69-2.84v3.69h-.87v-5h1l2 3.4 2-3.4zm7.56.79h-2.6v4.24H68v-5h4.3v5h-.85v-4.19zm8.44 4.26H79v-3.71l-2.69 3.76h-.85v-5h.87v3.76L79 53.82h.9v5zm7.92-2.51a3 3 0 0 1-.19 1.11 2.42 2.42 0 0 1-.53.84 2.29 2.29 0 0 1-.82.53 2.91 2.91 0 0 1-1.05.19 2.86 2.86 0 0 1-1.05-.19 2.35 2.35 0 0 1-.82-.53 2.39 2.39 0 0 1-.53-.84 3.31 3.31 0 0 1 0-2.21 2.43 2.43 0 0 1 .53-.84 2.31 2.31 0 0 1 .82-.53 2.86 2.86 0 0 1 1.05-.19 2.91 2.91 0 0 1 1.05.19 2.25 2.25 0 0 1 .82.53 2.48 2.48 0 0 1 .53.84 3 3 0 0 1 .19 1.16zm-.89 0a1.91 1.91 0 0 0-.48-1.39 1.64 1.64 0 0 0-1.24-.48 1.62 1.62 0 0 0-1.23.48 2.25 2.25 0 0 0 0 2.77 1.63 1.63 0 0 0 1.23.48 1.65 1.65 0 0 0 1.24-.48 1.91 1.91 0 0 0 .48-1.32zm7.16.23h-2.64v2.28h-.86v-5h.87v1.91h2.64v-1.88h.9v5h-.91v-2.25zm7.46 2.28l-.06-.55a2.82 2.82 0 0 1-.68.5 1.91 1.91 0 0 1-.91.2 2.16 2.16 0 0 1-.83-.16 2 2 0 0 1-.7-.48 2.39 2.39 0 0 1-.48-.82 3.38 3.38 0 0 1-.18-1.16 3.07 3.07 0 0 1 .21-1.19 2.43 2.43 0 0 1 .57-.85 2.3 2.3 0 0 1 .85-.5 3.28 3.28 0 0 1 1.05-.16 3.85 3.85 0 0 1 .53 0l.53.09a4.1 4.1 0 0 1 .48.13l.37.15v4.77h-.74zm-.14-4.21a2.91 2.91 0 0 0-1-.18 2.3 2.3 0 0 0-.68.1 1.48 1.48 0 0 0-.57.32 1.6 1.6 0 0 0-.39.58 2.24 2.24 0 0 0-.15.86 2.08 2.08 0 0 0 .38 1.5 1.33 1.33 0 0 0 1 .45 1.67 1.67 0 0 0 .75-.18 1.91 1.91 0 0 0 .62-.48v-2.91zM42.85 34.33H46l1.66-2.2h-4.81v2.2zm59.22 10.17V39c0-3.37-2.45-4.44-5.12-4.44a7.68 7.68 0 0 0-5.12 1.85l1.17 2.1a4.93 4.93 0 0 1 3.42-1.38c1.55 0 2.57.78 2.57 2-2.39-.48-5.78-.16-7.12 1.7a3.71 3.71 0 0 0-.66 2.17 3.64 3.64 0 0 0 1.56 3.09c2.77 2 7.11 1 9.31-1.61zm-5.55.32c-1.21 0-2.21-.63-2.21-1.72 0-2.18 3.82-2.27 4.68-1.75v2.45a3.08 3.08 0 0 1-2.47 1zm-12.47 1.8h-2.39v3.31h-3.07v-15H84a5.86 5.86 0 0 1 0 11.72zm-2.39-2.45h1.62a3.41 3.41 0 0 0 0-6.83h-1.62v6.83zm-63.14 2.44h-2.39v3.31h-3.05v-15h5.45a5.86 5.86 0 0 1 0 11.72zm-2.39-2.45h1.62a3.41 3.41 0 0 0 0-6.83h-1.62v6.83zm55.68 2.74a7.31 7.31 0 0 0 4.83-1.62l-1.36-2a5 5 0 0 1-3.13 1.16 3.16 3.16 0 0 1-3.37-2.72h8.73v-.66c0-3.82-2.39-6.45-5.87-6.45a6 6 0 0 0-6.07 5.85v.28a5.93 5.93 0 0 0 6.25 6.16zm2.69-7.25h-5.73a2.82 2.82 0 0 1 2.86-2.6 2.71 2.71 0 0 1 2.86 2.55zm-22.91 8.52h3.1v-1.55h7.2v1.55H65v-4.24h-1.3v-9h-9.49l-.75 5.68c-.36 2.84-.92 3.3-1.87 3.47v4.13zm5.31-10.56h3.71v6.33h-5.43a5 5 0 0 0 1.36-3.15l.36-3.17zm-14.75 9l5-7.35v7.35h3.05V34.9h-3.1L42.28 42v-7.1H39.2v11.71h3zm-10.29.29a7.31 7.31 0 0 0 4.83-1.62l-1.36-2a5 5 0 0 1-3.13 1.16 3.16 3.16 0 0 1-3.37-2.72h8.7v-.64c0-3.82-2.39-6.45-5.87-6.45a6 6 0 0 0-6.06 5.86v.28a5.93 5.93 0 0 0 6.25 6.16zm2.7-7.26h-5.77a2.82 2.82 0 0 1 2.86-2.6 2.71 2.71 0 0 1 2.86 2.55zm-26.37 7V34h4.7v-3H0v3h4.73v12.59zm93.88-18.7v-3.82c0-2.39-1.72-3.11-3.59-3.11a5.39 5.39 0 0 0-3.59 1.29l.82 1.43a3.46 3.46 0 0 1 2.39-1c1.09 0 1.8.54 1.8 1.38-1.68-.32-4.05-.11-5 1.19a2.6 2.6 0 0 0-.48 1.56 2.55 2.55 0 0 0 1.09 2.17c1.94 1.37 5 .69 6.53-1.13zm-38.13-9.46v8.82h-3.6v-8.83H57.9v8.82h-3.6v-8.82h-2.42v10.94h14.47V18.47h-2.41zm20.81 11.14c2.09 0 3.11-1.35 3.45-4.18l.27-2.35h2.6v6.32h2.16V21.2h-6.64l-.53 4c-.25 2-.64 2.67-1.31 2.67v1.77zm-4.59 0a4.3 4.3 0 1 0-4.34-4.32 4.17 4.17 0 0 0 4 4.32h.33zm0-1.91a2.16 2.16 0 0 1-2.09-2.39 2.12 2.12 0 1 1 4.2 0 2.17 2.17 0 0 1-2.11 2.4zm-4 1.72h-2.68l-2.17-3.18-1 1.05v2.11h-2.15V21.2h2.16v3.66l3.11-3.66h2.65l-3.25 3.72 3.34 4.49zm22-1.26A1.35 1.35 0 0 1 96.62 27c0-1.53 2.66-1.59 3.28-1.23v1.72a2.16 2.16 0 0 1-1.73.7z" transform="translate(0 -.68)"/><circle class="cls-1" cx="139.32" cy="38.35" r="25.74"/><circle class="cls-2" cx="139.32" cy="38.35" r="25.02"/><path class="cls-3" d="M139.32 13a26 26 0 1 1-23.76 36.69l-.21-.48v-.11l-.19-.48-.06-.14-.2-.48-.06-.16-.15-.42-.07-.19-.13-.41-.07-.22-.11-.38-.06-.22-.09-.33-.08-.31L114 45l-.08-.34-.06-.26-.08-.4v-.2l-.09-.48v-.16l-.08-.48v-.12l-.06-.48v-.17A26.16 26.16 0 0 1 114 33l.07-.3.09-.33v-.23a25.83 25.83 0 0 1 1-2.91l.09-.21v-.1l.21-.48.06-.13.21-.44.07-.14.21-.42.08-.15.21-.4.09-.16.21-.39.1-.17.21-.36.11-.19.21-.34.12-.19.21-.32.13-.2.22-.32.14-.2.22-.31.18-.21.22-.3.24-.31.16-.2.05-.07.11-.12.11-.12a26 26 0 0 1 19.75-9.07zm2.06 32.28a.28.28 0 0 0-.09.07.26.26 0 0 0 0 .09v.09a.1.1 0 0 1 0 .08v.08a.11.11 0 0 1 0 .09.7.7 0 0 1 0 .1.28.28 0 0 0-.07.09.54.54 0 0 0 0 .22.61.61 0 0 0 0 .3.28.28 0 0 0 .17.12.89.89 0 0 1 .08.06.48.48 0 0 0 .18 0 .83.83 0 0 0 .24 0 1.43 1.43 0 0 1 0-.16.43.43 0 0 0 0-.1.37.37 0 0 0 0-.09 1.25 1.25 0 0 0 0-.17V46a.26.26 0 0 0-.06-.08l-.07-.08a.09.09 0 0 0 0-.09.5.5 0 0 1-.09-.06l-.06-.09a.15.15 0 0 1-.07-.08 1 1 0 0 1 0-.19h-.14zm15.93 11.1v.07l.32-.33v-.06h-.07a.57.57 0 0 1-.1.14.9.9 0 0 1-.18.14h-.13l-.11.06h-.07v-.07a.42.42 0 0 0 0-.07l-.09.09-.05.05.08-.12v-.06l.06-.11h-.05v.06-.07a.74.74 0 0 1 .11-.16.52.52 0 0 0 .1-.11h-.06l-.07.1v.05h-.05v.06s-.08.06-.11.1a.48.48 0 0 1-.15.12.51.51 0 0 1 .05-.12v-.08a.3.3 0 0 0-.13 0l.05-.12h-.18l-.08.05h-.19s-.11.06-.16.07h-.08l-.13.07v.05l-.07.07h-.06l-.14.12-.07.06h-.09a.74.74 0 0 0-.09 0h-.27a1.81 1.81 0 0 0-.29.23l-.07.06-.1.11-.07.06-.07.06h-.33a.51.51 0 0 0-.2 0h-.11l-.07.06h-.28v.06h-.06l-.09.07h-.66a.08.08 0 0 0 0-.06h-.15c-.07 0 0 0 0 0l.07-.06h.06l.13-.09h.11a1 1 0 0 1 .07-.18v.52a1.28 1.28 0 0 1 .06-.15.16.16 0 0 0 0-.09.08.08 0 0 1 0-.1v-.15a.21.21 0 0 0 0-.11v-.1a.08.08 0 0 1 0-.09v-.11a.27.27 0 0 0-.08-.07v-.1h.07a.06.06 0 0 1 .05 0h.07v-.06a.33.33 0 0 1-.07-.12.15.15 0 0 1 0-.09h-.06a.08.08 0 0 1 0-.05v-.3a.38.38 0 0 1 .08-.07.31.31 0 0 0 .06-.06v-.06a.17.17 0 0 1 0-.12v-.1a.2.2 0 0 1 .07 0l.08-.13v.1h.21a.21.21 0 0 0-.68-.14.35.35 0 0 0 0-.1.39.39 0 0 1 .11-.13h.08l.21-.13.16-.1a.78.78 0 0 1 .1-.08.7.7 0 0 0 .16 0l.09-.06.15-.09h.08l.24-.06h.08a.3.3 0 0 0 .07-.05h.05l.07-.05v-.06l.13-.14a.05.05 0 0 0 .05 0 .07.07 0 0 1 0-.06.16.16 0 0 0 .05-.07l.08-.1a.18.18 0 0 0 .06-.06v-.06a.67.67 0 0 0 0-.18.52.52 0 0 1 0-.12l.05-.07h.26a.26.26 0 0 1 0 .12l.23-.08v-.45a.55.55 0 0 1 0-.11h.1a.15.15 0 0 0 .07-.08v-.06a.43.43 0 0 1 .13-.19.14.14 0 0 0 .1 0 .21.21 0 0 1 .05-.07l.07-.08a.07.07 0 0 1 0-.06.43.43 0 0 1 .12-.1h.1a.36.36 0 0 0 .11-.05h.1a.42.42 0 0 0 0 .12h.77a.17.17 0 0 0 .05-.07v-.08a.09.09 0 0 1 0-.06.79.79 0 0 0 0-.11v-.05l.07-.09.07-.06.07-.06.13-.14.08-.08h.3-.15v-.05a.62.62 0 0 0 0-.11h.14a.14.14 0 0 1 .07 0h.56v.06a.5.5 0 0 0-.11.12v.08l-.05.08a.08.08 0 0 1 0 .06.07.07 0 0 0-.05 0v.11a.85.85 0 0 0-.06.15.09.09 0 0 0 0 .05.36.36 0 0 1 0 .06h.05c.05 0 0 0 0 0a.1.1 0 0 1 0 .05v.1a.1.1 0 0 1 .08 0 .11.11 0 0 1 .1.07v.07h.15v-.05l.05-.05v-.08c.06-.21.06-.21.14-.44v-.33a.6.6 0 0 0 0-.11v-.55a.69.69 0 0 1 0-.11v-.06l.08-.14v-.06a.73.73 0 0 0 0-.08.52.52 0 0 0 0-.11V50v.07c0 .07 0 0 0 0v.25a1.09 1.09 0 0 1 0 .16v.15a.1.1 0 0 1 0 .07h.15v.07a.43.43 0 0 1 0 .11v.14c0 .07 0 0 0 0a.48.48 0 0 0 0 .1v.2a.08.08 0 0 1 0 .07v.18h.13v.1h.87a.45.45 0 0 0 0 .1.51.51 0 0 0 0 .1v.11h.13l-.08.21v.4l-.06.14v.07l-.07.11v.08l-.11.23v.05a25 25 0 0 0 2.36-24.94v.1l.06.11v.4l.05.11v.14l-.15-.1v.08l.08.26v.67a1.43 1.43 0 0 0 0 .17l-.21-.5-.12-.26v-.1c-.06-.21-.11-.35-.18-.56v-.1a.51.51 0 0 1 0-.1v-.1a.18.18 0 0 0 0-.12v-.21a.53.53 0 0 0 0-.12.45.45 0 0 0 0-.09h.08v-.11a.34.34 0 0 1 0-.11l-.21-.41-.19-.35v-.13a.16.16 0 0 0 0 .07v.41l-.09-.07v.1-.06a.63.63 0 0 0-.1-.14s0 .06 0 0l-.13-.07a.31.31 0 0 1 0-.09v-.11l-.05-.08h-.06l-.05-.05-.06-.08v.23l-.84-.22h-.05a.31.31 0 0 1-.09-.09.1.1 0 0 1 0-.05.64.64 0 0 1-.09 0 .37.37 0 0 0-.09-.06h-.08a.06.06 0 0 0-.06 0v.26a.19.19 0 0 0 0 .05h-.07a.19.19 0 0 0 0 .08H159V27a.62.62 0 0 0 .05.21h-.15v.06h-.07v.17h.05c.05 0 0 0 0 0h.08a.48.48 0 0 1 .11.17v.18h.1v.09a.75.75 0 0 1 0-.11.09.09 0 0 0 0-.06 1.37 1.37 0 0 1 .12.21V28l.17.06-.08-.3.12.06a1.43 1.43 0 0 0 .14.18v.08l.05.05.06.07v.06a.21.21 0 0 0 0 .08v.34h.06v-.11a.09.09 0 0 0 0-.06.36.36 0 0 1 0-.07.09.09 0 0 0 0-.06h.06L160 28h.08a1.31 1.31 0 0 1 .07.22.49.49 0 0 1 .05.13.56.56 0 0 0 0 .11v.06a.08.08 0 0 0 0 .07.08.08 0 0 1 0 .07v.12a.16.16 0 0 0 0 .07c0 .07 0 0 0 0a.06.06 0 0 0 0 .06.46.46 0 0 1 .09.14v.12a.16.16 0 0 1 0 .07.38.38 0 0 0 0 .16v.08a.43.43 0 0 1 0 .07v.07s0 .09.05.13a.06.06 0 0 0 0 .06v.07l.21.12a.2.2 0 0 0-.08-.07.72.72 0 0 0 0 .07.6.6 0 0 0 0 .09.25.25 0 0 0 0 .11.6.6 0 0 0 0 .13v.08a.31.31 0 0 0 0 .13.13.13 0 0 1 0 .06.09.09 0 0 0 0 .06.14.14 0 0 1 .06.08V31a.06.06 0 0 0 0 .06v.07a.18.18 0 0 1-.11-.08v-.06a.26.26 0 0 0 0-.13c0-.06 0 0 0 0v.23h-.07a.12.12 0 0 0 0-.09.12.12 0 0 1 0-.09v-.14a.27.27 0 0 0 0-.09 1.1 1.1 0 0 0-.06-.17.74.74 0 0 0-.07-.19v-.09a.48.48 0 0 1 0-.09v-.07a1.79 1.79 0 0 0 0-.21.89.89 0 0 0-.05-.25c0-.09 0-.11-.07-.17a.08.08 0 0 1 0-.07v-.1a.24.24 0 0 0 0-.08v-.05a.09.09 0 0 0 0-.06v.06V29v.3a.34.34 0 0 1 0 .07v.17a.82.82 0 0 1 0 .16v.09a.33.33 0 0 0 0 .07v.41a.11.11 0 0 1 0 .11.16.16 0 0 0 0 .05.19.19 0 0 0-.06.1.11.11 0 0 0 0 .06.48.48 0 0 1 0 .12V31a.21.21 0 0 1 0 .11c0 .06 0 .11-.08.17v.07a.36.36 0 0 0-.08.12.27.27 0 0 1 0 .07.13.13 0 0 0-.09 0 .29.29 0 0 1 0 .05v.05a.23.23 0 0 1-.09 0 2.89 2.89 0 0 0-.21-.21.11.11 0 0 0-.05 0 .3.3 0 0 0-.06.11v.05a.31.31 0 0 1-.08.13.52.52 0 0 1 0 .05.29.29 0 0 0 0 .07v.07c0 .31 0 .31.07.61h-.25a.27.27 0 0 0 0 .06v.07a.27.27 0 0 0 0 .07.63.63 0 0 0 0 .18.5.5 0 0 0 0 .12v.15l.06.07a.06.06 0 0 1 .05 0v.07a.14.14 0 0 1 .06.07h.05a.09.09 0 0 1 0 .06v.16a.14.14 0 0 0 0 .09.18.18 0 0 0 .13.07v.28a.27.27 0 0 0 0 .08v.14a.27.27 0 0 1 0 .08h-.06l-.06.07-.06.05a.21.21 0 0 1-.15.11h-.29v.23a.2.2 0 0 1 0-.08v-.07a.21.21 0 0 0 0-.09v-.38a.17.17 0 0 0-.06-.1v-.43a.33.33 0 0 0-.11-.15h-.05a.64.64 0 0 0-.06.06h-.11a.38.38 0 0 0 0-.17v-.09a.2.2 0 0 0 0-.08.4.4 0 0 0 0-.07V33a.27.27 0 0 0 0-.14h-.06a.29.29 0 0 0-.11-.06h-1.19a1 1 0 0 0-.17-.1c-.07 0 0 0 0 0h-.06v.07a.48.48 0 0 1-.08.12.22.22 0 0 1-.07 0h-.28a.08.08 0 0 1 0 .07h-.06v-.11a.19.19 0 0 0 .06 0v-.07a.24.24 0 0 0 .08-.15.84.84 0 0 1 0-.14.06.06 0 0 0 .05 0v-.22a.15.15 0 0 0-.06-.05.21.21 0 0 0-.06.07l-.06.06a.16.16 0 0 1 0 .07.13.13 0 0 1-.05.06v.07h-.05a.19.19 0 0 0-.11 0h-.13v.07a.07.07 0 0 0 0 .07.32.32 0 0 0 0 .07h-.36a.77.77 0 0 0-.09.15.36.36 0 0 0 0 .13.19.19 0 0 0 .12.17h.38a1.8 1.8 0 0 0 0 .42h-.1.12a.06.06 0 0 1 0-.06.11.11 0 0 0 0-.09v-.07h.22l.11.17v.06h.28a.51.51 0 0 1 0 .07 1.8 1.8 0 0 1 0 .19h-.4a.11.11 0 0 1 0 .06v.07a.06.06 0 0 1-.05.05h-.16v.16a1.15 1.15 0 0 1 0 .14l-.06.05a.29.29 0 0 0-.05.09.12.12 0 0 0 0 .06.79.79 0 0 1 0 .09v.07l-.01.12h.07a.25.25 0 0 1 .07.07.44.44 0 0 1 .12.17c0 .08.07.09.1.17a.65.65 0 0 1 .06.23 1.23 1.23 0 0 0 0 .23.15.15 0 0 0 .06.06.31.31 0 0 1 .06.08.48.48 0 0 1 0 .07v.32a.18.18 0 0 1 0 .07h-.11v.07a.3.3 0 0 1 0 .07v.17h.18v.06a.31.31 0 0 1 0 .12.39.39 0 0 1-.07.22.45.45 0 0 1-.1.15.06.06 0 0 0-.07.06.48.48 0 0 0 0 .07.75.75 0 0 0 0 .09.56.56 0 0 0 0 .07v.2a.13.13 0 0 1 0 .07.11.11 0 0 1-.07.06l-.07.09v.07a.88.88 0 0 1-.06.09.09.09 0 0 0 0 .07s-.05.15-.09.24a1.56 1.56 0 0 1-.12.15v.08a.7.7 0 0 0 0 .08v.15a.18.18 0 0 1-.06.08.36.36 0 0 0-.06 0 .1.1 0 0 1 0 .07.28.28 0 0 1-.12.1h-.12a.15.15 0 0 0-.06 0 .13.13 0 0 0-.06.06v.08a.07.07 0 0 1 0 .08h-.06l-.06.06a.11.11 0 0 0-.06 0l-.06.06a.08.08 0 0 1-.11.08h-.4v.06c0 .06 0 .07-.05.09h-.69a.17.17 0 0 0-.07.05s0 .07-.07.1a.1.1 0 0 1-.07 0h-.22v.48a.12.12 0 0 1 .13.06.1.1 0 0 1 0 .09.82.82 0 0 1 0 .1.16.16 0 0 1-.05.08.23.23 0 0 0 0 .08 2.12 2.12 0 0 0 0 .29h-.56a.08.08 0 0 1-.07 0 .36.36 0 0 1 0-.1.43.43 0 0 1 0-.12.25.25 0 0 1 .07-.12.23.23 0 0 1 .06-.09.38.38 0 0 0 .07-.06H153h.07a.14.14 0 0 0 .05-.08V40h-.5a.51.51 0 0 1-.06.09.07.07 0 0 1-.07 0 1.08 1.08 0 0 1-.16.08h-.16a.19.19 0 0 0-.06.11.86.86 0 0 0 0 .1v.13a.71.71 0 0 1 0 .1v.1a.26.26 0 0 0-.08.05l-.07.06a.16.16 0 0 0-.08.06.76.76 0 0 0 0 .1.62.62 0 0 0 0 .14.38.38 0 0 0 0 .14s.07 0 .07.05a.58.58 0 0 1 0 .09v.16a.12.12 0 0 0 .07.07.32.32 0 0 0 0 .09l.09.06.14.11.07.06h.07a.15.15 0 0 1 0 .08.63.63 0 0 0 .1.19.09.09 0 0 0 .05.08h.07a.4.4 0 0 0 .18 0v.18a.92.92 0 0 0 0 .18 1.41 1.41 0 0 0 .1.26 1.06 1.06 0 0 1 0 .19v.69a.65.65 0 0 1 0 .16.29.29 0 0 1 0 .08.11.11 0 0 1-.07.06.31.31 0 0 0-.08 0l-.09.09c-.07.06-.1.12-.17.19s-.06.07-.09.07h-.14a.13.13 0 0 0-.11 0 .14.14 0 0 0-.08.09v.16a.38.38 0 0 1-.06.09.15.15 0 0 1 0 .09l-.07.06-.1.09-.08.08-.08.07a1.25 1.25 0 0 0-.14.17l-.06.09a.61.61 0 0 1-.09-.33.54.54 0 0 1 0-.16c0-.06.08-.09.08-.16s0-.06-.05-.07a.12.12 0 0 0-.07 0h-.22a.42.42 0 0 1-.12-.13 1.71 1.71 0 0 1-.09-.15 1.1 1.1 0 0 1-.06-.17.59.59 0 0 0-.05-.17.55.55 0 0 0-.11-.16c0-.06 0-.15-.11-.14a.13.13 0 0 0-.08 0 .7.7 0 0 1-.08 0 .21.21 0 0 1-.11 0 .29.29 0 0 1-.07-.06.64.64 0 0 0 0-.17s-.06 0-.08-.06a.11.11 0 0 0 0-.08l-.16-.01h-.08a.25.25 0 0 0-.06.11s-.07 0-.08.06a.37.37 0 0 0 0 .13v.16a.31.31 0 0 1 0 .13 2.39 2.39 0 0 1-.12.25.71.71 0 0 0-.17.27v.42h.21a.14.14 0 0 1 0 .09v.24h.08a.6.6 0 0 1 .08 0 .19.19 0 0 1 0 .08v.08a.79.79 0 0 0 0 .16.29.29 0 0 0 0 .08.17.17 0 0 0 .05.08.27.27 0 0 0 .09.24h.25a.38.38 0 0 1 .07.08.13.13 0 0 1 .07 0 .4.4 0 0 0 0 .08l.07.05a.34.34 0 0 0 .22 0v.25a.28.28 0 0 1 0 .08v.08a.29.29 0 0 1 0 .08 1.22 1.22 0 0 0 0 .24.16.16 0 0 0 .07.07.14.14 0 0 1 0 .08.17.17 0 0 1 0 .08 1.58 1.58 0 0 1 0 .23v.25a.32.32 0 0 0 .08.15h.17v.08a.62.62 0 0 1 .08.14s0 .06-.08.07a.21.21 0 0 1-.12 0h-.23a.17.17 0 0 0 0-.07s0-.12-.07-.15h-.15a.85.85 0 0 1-.23-.14h-.53a.18.18 0 0 1-.07-.08.12.12 0 0 1 0-.08.34.34 0 0 1 0-.1.19.19 0 0 1 0-.08 1.84 1.84 0 0 1 0-.42.35.35 0 0 0-.05-.17.26.26 0 0 0-.07-.08.19.19 0 0 1 0-.09s-.07-.1-.08-.16a.42.42 0 0 1 0-.16v-.2c0-.07 0-.05-.05-.08a.13.13 0 0 0-.06-.07h-.07a.56.56 0 0 1-.15-.12.37.37 0 0 0-.12-.16.07.07 0 0 0-.08 0 .08.08 0 0 1-.08 0 .14.14 0 0 1-.05-.08.41.41 0 0 1 0-.21v-.18a1.53 1.53 0 0 1 0-.17.19.19 0 0 0 0-.08 1.72 1.72 0 0 1 0-.25.24.24 0 0 1 0-.09.19.19 0 0 1 0-.09h.16a.24.24 0 0 0 .12-.2c0-.07-.05-.1-.05-.16V44a.22.22 0 0 0 0-.12l-.08-.05-.11-.16a.17.17 0 0 0-.08-.06v-.09a.5.5 0 0 1 0-.09c0-.12.14-.17.15-.29a.17.17 0 0 0 0-.09.79.79 0 0 1-.08 0 .75.75 0 0 0-.06-.08.66.66 0 0 1 0-.08c0-.11 0-.17-.05-.28a.84.84 0 0 0-.06-.17.26.26 0 0 0 0-.09.34.34 0 0 0 0-.09.41.41 0 0 0-.24-.11.56.56 0 0 1-.06.09.52.52 0 0 0 0 .09.85.85 0 0 1 0 .09h-.18a.36.36 0 0 0-.08 0 .16.16 0 0 0-.08 0 .18.18 0 0 1 0 .09.12.12 0 0 1-.08 0h-.24a.2.2 0 0 1-.08-.06l-.08-.06a.45.45 0 0 1-.08-.34.69.69 0 0 1 0-.26.32.32 0 0 1 0-.08.59.59 0 0 0 0-.18v-.03h-.09a.32.32 0 0 0-.08 0 .41.41 0 0 0-.17 0v-.41A.21.21 0 0 0 147 41l-.06-.08-.08-.07a.89.89 0 0 1-.17-.12v-.09a.15.15 0 0 1-.08 0v-.09a.17.17 0 0 1 0-.09v-.22a.85.85 0 0 0-.06-.2.11.11 0 0 0 0-.09h-.09v-.21l-.06-.09h-.23v.26h-.42a.08.08 0 0 1 0 .09l-.09.07h-.09a.73.73 0 0 0-.09.09.17.17 0 0 1-.09 0s0 .06-.09.07h-.67v.18a.62.62 0 0 1-.07.35.26.26 0 0 1-.06.09.88.88 0 0 1-.18 0h-.42a.26.26 0 0 0-.15.13V41a.18.18 0 0 1-.09.07h-.18a.14.14 0 0 0 0 .09v.09a.34.34 0 0 1-.07.09 1.53 1.53 0 0 1-.18.09.18.18 0 0 0-.07.09l-.07.09a.81.81 0 0 0-.09.09 1.18 1.18 0 0 1-.09.18.25.25 0 0 1-.06.09h-.18a.36.36 0 0 0-.06.09l-.09.07h-.17a.16.16 0 0 0-.09.09v.09a.18.18 0 0 1-.07.18.5.5 0 0 1-.27 0 .4.4 0 0 0-.26 0c-.09.06 0 .06 0 .09a.14.14 0 0 0 0 .08v.85a.11.11 0 0 1 0 .08.41.41 0 0 0 0 .17 1.38 1.38 0 0 1 0 .17 1 1 0 0 1-.05.18.73.73 0 0 1-.06.17.52.52 0 0 1-.07.09 1 1 0 0 1 0 .21.71.71 0 0 1-.09.15v.08a.56.56 0 0 0 0 .09.2.2 0 0 1-.09.07.23.23 0 0 1-.09.09h-.17v.09a1 1 0 0 0-.16.26.2.2 0 0 1 0 .09.13.13 0 0 0 0 .09l-.09.06a.26.26 0 0 1-.13 0 .22.22 0 0 1-.13-.08.41.41 0 0 1-.09-.06v-.09a.38.38 0 0 0 0-.09 2.36 2.36 0 0 0-.13-.25 4.12 4.12 0 0 0-.2-.38.32.32 0 0 0-.06-.09v-.09a.73.73 0 0 1-.09-.09.42.42 0 0 1-.09-.3V44a.34.34 0 0 0 0-.17.21.21 0 0 0-.09-.09v-.09s-.07 0-.09-.09v-.09a.72.72 0 0 0 0-.09.51.51 0 0 1 0-.09.4.4 0 0 0 0-.11.52.52 0 0 0-.07-.09.61.61 0 0 1 0-.09 1.43 1.43 0 0 1 0-.2v-.05a.47.47 0 0 0-.07-.09.73.73 0 0 0-.09-.09l-.07-.09a.35.35 0 0 1-.13-.18 2.86 2.86 0 0 1 0-.29.48.48 0 0 0 0-.09 1.33 1.33 0 0 0-.07-.18.24.24 0 0 1 0-.09 2.25 2.25 0 0 1 0-.31v-.46a.65.65 0 0 0 0-.09 1 1 0 0 0-.09-.2 1 1 0 0 1 0-.18.37.37 0 0 0 0-.22.09.09 0 0 0 0-.09.33.33 0 0 0-.22-.09.13.13 0 0 0-.09.09.27.27 0 0 1-.07.11.56.56 0 0 0-.18 0 .52.52 0 0 0-.07.09.45.45 0 0 1-.09.07h-.88a.21.21 0 0 1-.09-.09l-.11-.06a.69.69 0 0 1-.18-.16l-.06-.06a.23.23 0 0 0-.07-.09.17.17 0 0 0-.09 0h-.09a.16.16 0 0 1 0-.09.17.17 0 0 1 0-.09h.54l-.2-.09H137a.48.48 0 0 1-.09 0h-.35a.4.4 0 0 1-.07-.09.29.29 0 0 0 0-.09h-.15a.6.6 0 0 0 0-.17.24.24 0 0 0 0-.09l-.15-.2h-.09l-.1-.06a1.1 1.1 0 0 1-.11-.18.17.17 0 0 0-.09-.07l-.09-.07a.31.31 0 0 0-.18-.13h-.48l-.54.09h-.73c-.08 0-.11-.07-.18-.07h-.4a.22.22 0 0 1-.11 0 .11.11 0 0 1-.09 0v-.09c0-.02 0-.06-.08-.07h-.11a.13.13 0 0 0-.09 0h-.63a.2.2 0 0 1 0-.09.59.59 0 0 1 0-.09V38a.28.28 0 0 0-.12-.15l-.08-.07h-.48a.16.16 0 0 0-.08 0h-.55a.1.1 0 0 0-.08 0 .46.46 0 0 1-.18 0 .62.62 0 0 1-.16-.11l-.16-.13a.89.89 0 0 0-.16-.14 1.51 1.51 0 0 1-.23-.13.17.17 0 0 1-.08-.08c0-.09-.07-.17-.11-.26a.14.14 0 0 0-.08-.08l-.13-.17-.08-.06a.4.4 0 0 0-.21-.21.59.59 0 0 0-.19 0h-.11a.16.16 0 0 0-.08.1v.08a1.17 1.17 0 0 0 0 .14 1.16 1.16 0 0 0 0 .13 1 1 0 0 1 0 .11.53.53 0 0 0 0 .08v.09a.29.29 0 0 0 .08.08.54.54 0 0 1 .1.17v.16a.62.62 0 0 0 0 .11h.11a.24.24 0 0 1 .08.05h.16a.25.25 0 0 1 .08.09.09.09 0 0 0 .08 0 .28.28 0 0 1 .06.08v.43h.1a.1.1 0 0 1 .08 0 .89.89 0 0 0 .26 0 .77.77 0 0 1 .2.08h.25a.31.31 0 0 0 .16 0h.08a.16.16 0 0 1 .08.06.1.1 0 0 1 0 .09.08.08 0 0 1-.08 0h-.26a.66.66 0 0 1-.12-.07.27.27 0 0 0-.2.09h-.14a.24.24 0 0 0 0 .09.48.48 0 0 0 0 .09.21.21 0 0 0 .08.09.17.17 0 0 0 .08.08.22.22 0 0 0 .16.08.14.14 0 0 0 .08-.1.19.19 0 0 1 .08-.08h.08a.46.46 0 0 0 .08-.06h.2a.62.62 0 0 0 .1 0h.42c.06 0 0-.11 0-.17a1.35 1.35 0 0 1 0-.26.28.28 0 0 1 .11-.18h.16v-.09c0-.03.06 0 .08.07l.06.09v.43l.06.09a.15.15 0 0 1 .08 0 .19.19 0 0 1 0 .09 1.29 1.29 0 0 0 0 .2.35.35 0 0 0 .12-.16.62.62 0 0 0 0-.2h.16a.19.19 0 0 1 .09 0h.08a.19.19 0 0 1 0 .09.81.81 0 0 1-.06.18.16.16 0 0 0 0 .09h.17l.17.07a.14.14 0 0 1 .09.09.29.29 0 0 1 0 .09.65.65 0 0 0 0 .11v.09a.16.16 0 0 0 .09 0h.28a.15.15 0 0 1 .09.09.91.91 0 0 1 0 .2l-.09.34h-.17v.09a.79.79 0 0 0 0 .11 2.23 2.23 0 0 0-.06.28 2.32 2.32 0 0 0 0 .26h-.09a.75.75 0 0 0-.06-.09.16.16 0 0 0-.12.07.26.26 0 0 0 0 .09.44.44 0 0 1-.06.08.29.29 0 0 0 0 .09v.08a.42.42 0 0 1 0 .16H132a.16.16 0 0 0-.08.08.41.41 0 0 0-.06.17.22.22 0 0 1 0 .08.17.17 0 0 0 0 .09h-.41a.83.83 0 0 0-.1.16.57.57 0 0 0 0 .09v.08a.74.74 0 0 0 0 .13h-.73a.41.41 0 0 0-.08 0h-.08a.65.65 0 0 0-.08.06h-.08a.25.25 0 0 0-.06.08.11.11 0 0 0 0 .09v.15h-.32a.15.15 0 0 0-.08.09l-.08.09a.14.14 0 0 1-.08.08h-.23s0 .05-.08.05h-.15a.17.17 0 0 0-.08.06 1.28 1.28 0 0 0-.23 0 .14.14 0 0 0-.07.09.25.25 0 0 0-.09.06.2.2 0 0 0-.06.07 1.43 1.43 0 0 1-.07.17h-.08a.27.27 0 0 0-.08-.06h-.56a.39.39 0 0 0-.14.1.78.78 0 0 0-.09.15.14.14 0 0 1-.07.08.61.61 0 0 1-.21 0h-.15a.25.25 0 0 1-.15-.13.4.4 0 0 1-.19-.21 5.79 5.79 0 0 0 0-.7.37.37 0 0 0-.1-.17.32.32 0 0 1 0-.09.48.48 0 0 1 0-.08v-.1a.14.14 0 0 0 0-.09s0-.07-.06-.11v-.09c-.07-.1-.15-.15-.22-.24a2 2 0 0 1-.15-.26l-.09-.08-.06-.1A1 1 0 0 0 126 41a.23.23 0 0 0-.07-.09.13.13 0 0 0 0-.08l-.07-.06-.14-.15a.22.22 0 0 0-.07-.08.07.07 0 0 1-.07 0s-.05 0-.07-.06a.26.26 0 0 1 0-.15.55.55 0 0 1 0-.09v-.09a.55.55 0 0 0 0-.09.63.63 0 0 0-.07-.25l-.07-.17c0-.06 0-.1-.07-.17s-.09-.1-.13-.19 0-.06 0-.07v-.09L125 39h-.14a.08.08 0 0 1-.1-.06.53.53 0 0 1 0-.27v-.17a.32.32 0 0 0 0-.13.16.16 0 0 0-.07-.09.86.86 0 0 1-.11-.17.33.33 0 0 0 0-.08.48.48 0 0 0 0-.08v-.18a.17.17 0 0 0 0-.08.08.08 0 0 1-.07 0 .73.73 0 0 1-.06-.07.23.23 0 0 1 0-.08 1.43 1.43 0 0 1-.14-.23v-.08l-.07.09v.08a.13.13 0 0 1-.06.06h-.21a.21.21 0 0 1-.06-.09v-.16a.36.36 0 0 1 0-.09.08.08 0 0 0 0-.07.57.57 0 0 0-.11-.13v-.4a.14.14 0 0 0 0-.07.13.13 0 0 1 0-.07v-.16h-.16l-.1-.05a.7.7 0 0 1-.07 0h.35l.07.06c.07.06 0 0 0 0h.22-.11a.24.24 0 0 0 .06-.1.14.14 0 0 1 0-.11.89.89 0 0 0 .07-.2.43.43 0 0 1 0-.08.1.1 0 0 0 .08-.06v-.07a.4.4 0 0 1 .06-.1V35a.27.27 0 0 1 0-.08.16.16 0 0 0 0-.06.15.15 0 0 0 0-.07v-.37a.45.45 0 0 1 0-.16v-.1a.13.13 0 0 1 0-.06.55.55 0 0 0 0-.13.54.54 0 0 0 0-.08.17.17 0 0 1 0-.07h-.13a.08.08 0 0 0 0-.08h-.27a.69.69 0 0 0 0 .08v.1a1 1 0 0 0 0 .13h-.49a.16.16 0 0 0-.06-.05.15.15 0 0 0 0-.07h-.09a.07.07 0 0 0-.08 0 .34.34 0 0 0 0 .07v.19h-.32l-.18-.19h-.08v.11a.87.87 0 0 1 0 .11v.1a.11.11 0 0 1-.06.1.56.56 0 0 1 0-.1v-.15a.2.2 0 0 1 0-.05.48.48 0 0 0 0-.07v-.32a.29.29 0 0 0 0-.07.25.25 0 0 1 0-.06v-.25a.3.3 0 0 0 0-.2 1.08 1.08 0 0 0-.11-.05.23.23 0 0 1 0-.17.11.11 0 0 1 .06-.08h.06v-.11h-.05a.39.39 0 0 1 0-.08.33.33 0 0 0 0-.06h-.06a.12.12 0 0 0 0-.06h-.24l-.05.06v.09a.05.05 0 0 0 0 .05s0 .07-.06.06h-.21a.11.11 0 0 1 0-.06.15.15 0 0 1 0 .07v.08a.56.56 0 0 0 0 .06.1.1 0 0 0 0 .06v.06h.1a.15.15 0 0 1 0 .07v.2a.35.35 0 0 0 0 .05.14.14 0 0 0 0 .09h.11v-.07a.59.59 0 0 0 0-.14h.07v.07a.12.12 0 0 1 .05 0 .3.3 0 0 0 0 .09h-.16v.26h-.17v-.07h-.05a.15.15 0 0 0 0 .09.06.06 0 0 1 0 .07v.08a.18.18 0 0 1 0 .06.14.14 0 0 1-.06.06.12.12 0 0 1 0 .07.09.09 0 0 1-.05 0H121s-.06 0-.06-.06a.43.43 0 0 1 0-.08.5.5 0 0 0 0-.15s-.07 0-.09-.09a.06.06 0 0 1 0-.06.43.43 0 0 1 0-.06h-.05v.08l-.06.07c-.06.07 0 0 0-.07a.31.31 0 0 1-.06-.12.1.1 0 0 0 0-.07v-.06a.09.09 0 0 1 .05 0v.06h.12v-.28h-.09a.16.16 0 0 1 0-.07.26.26 0 0 1 0-.12 1.18 1.18 0 0 1 0-.14.47.47 0 0 0-.07-.11.27.27 0 0 1 0-.11.61.61 0 0 1 0-.1.4.4 0 0 1 0-.08.37.37 0 0 0 0-.08v-.18h-.19a1.48 1.48 0 0 1-.11-.15.15.15 0 0 1-.08-.05v-.16h-.08a.08.08 0 0 1-.09-.05.09.09 0 0 0 0-.05l-.14-.09a.63.63 0 0 1 0-.14v-.05s0-.05 0 0v-.13h-.08a.52.52 0 0 1 0-.07v-.11a.06.06 0 0 0-.06 0h-.06a.23.23 0 0 0 0 .1v.06a.48.48 0 0 1 0 .07.32.32 0 0 0-.05.07v.23h.18a1.3 1.3 0 0 0 0 .15.18.18 0 0 1 0 .07h.11v.08a.06.06 0 0 0 0 .07v.08a.09.09 0 0 0 0 .06h.12v.07h.17a.16.16 0 0 1 0 .07v.07h.05a.41.41 0 0 0 0 .08.61.61 0 0 0 0 .08h.06v.12a.61.61 0 0 0 0 .2h-.05a.23.23 0 0 1 0-.08.08.08 0 0 0-.08 0h-.18v.18h.13a.18.18 0 0 1 .06 0v.21l-.08.06a.4.4 0 0 0-.05.07.22.22 0 0 0 0 .06.17.17 0 0 1 0 .14.64.64 0 0 1 0 .08.31.31 0 0 0 0 .07l-.1.11h-.06V34h-.37a.08.08 0 0 1 0-.05v.07a.12.12 0 0 0-.08 0v-.13a1.58 1.58 0 0 0 .28-.06h.14a.09.09 0 0 1 0-.08.34.34 0 0 1 .22-.11 1.1 1.1 0 0 0 0-.12v-.15a.57.57 0 0 0 0-.07.22.22 0 0 1 0-.07s-.06 0-.08-.07a.88.88 0 0 0 0-.14.31.31 0 0 1-.08-.16.48.48 0 0 0 0-.07h-.16a.06.06 0 0 0 0-.06.08.08 0 0 0 0-.06v-.17a.39.39 0 0 1-.77-.08.06.06 0 0 0 0-.06v-.28a.66.66 0 0 0 0-.18v-.09c0-.01 0-.06-.06 0v.2a.07.07 0 0 1 0 .06.09.09 0 0 1-.07 0h-.07a.08.08 0 0 1 0 .06v.06a.37.37 0 0 0 0 .07.72.72 0 0 0 0 .11.1.1 0 0 1-.08 0 .23.23 0 0 1-.09-.05h-.07a.17.17 0 0 0-.05 0 .19.19 0 0 0-.07.07v.07a.84.84 0 0 0 0 .11v.18a.62.62 0 0 1 0 .07V33a.06.06 0 0 0-.06 0 .1.1 0 0 1-.09 0v.06c0 .06 0 0 0 0v.12a.36.36 0 0 0-.06 0 .42.42 0 0 0 0 .07v.13a.63.63 0 0 1-.06.15v.07a.65.65 0 0 0 0 .09V34a1 1 0 0 1 0 .21.08.08 0 0 0-.06 0h-.09l-.06.06a.48.48 0 0 0-.1.15.31.31 0 0 1-.05.13h-.05a.08.08 0 0 0-.06.06v.07a.31.31 0 0 1-.06.09.09.09 0 0 1 0 .07.08.08 0 0 0-.05 0H116v-.1a.15.15 0 0 1-.06.06.1.1 0 0 1 0-.05l-.06.06h-.06a.2.2 0 0 1 0-.14.84.84 0 0 1 0-.1v-.17a.19.19 0 0 0 0-.08v-.19a.61.61 0 0 1 0-.16v-.07a.45.45 0 0 0 0-.07v-.44a.53.53 0 0 1 0-.1 1.38 1.38 0 0 1 0-.14V33a.36.36 0 0 0 0-.07v-.15h.11v-.12s0 .05 0 0a.05.05 0 0 1 .06 0l.21-.09v.08h.07a.22.22 0 0 0 .1-.12c0-.06 0 0 0 0a.82.82 0 0 0 .1-.17.79.79 0 0 0 0-.1v-.83l.05-.28V31a.05.05 0 0 0-.06 0v-.15a.42.42 0 0 1 0-.07.27.27 0 0 1 .06-.08l.07-.08v.09h.09l.1-.07a.5.5 0 0 1 0-.07v-.37a.13.13 0 0 1 .06 0h.1v-.19a.28.28 0 0 1 .11-.06l.09-.35h.1v-.12l.09-.11v-.06h.05v-.19h.62v-.1h.06a.52.52 0 0 0 .1-.13v-.13a.52.52 0 0 1 .08-.06.11.11 0 0 1 0-.06h.42v-.1a.22.22 0 0 0 0-.1v-.5a.64.64 0 0 1 0-.09v-.1a.36.36 0 0 1 0-.08.53.53 0 0 1 0-.12.37.37 0 0 1 .1-.16v-.29a.15.15 0 0 1 .44-.1.36.36 0 0 0 .09-.11.33.33 0 0 1 0-.11.16.16 0 0 1 .06-.07v.21l-.07.12v.09l.09-.06v.15a.07.07 0 0 0 0 .05.58.58 0 0 0 0 .11l.06-.07a.12.12 0 0 1 0-.06v-.05h.07a.18.18 0 0 0 .05 0h.08a.44.44 0 0 0 0 .1l-.06.1v.23a.43.43 0 0 1-.05.13h-.24l-.14.05a.22.22 0 0 0 0 .06v.11h.08v-.05a.43.43 0 0 0 0 .12h.14a.26.26 0 0 1 0-.16.08.08 0 0 1 .09-.05h.08a.11.11 0 0 1 0-.06h.13a.28.28 0 0 0 0 .19h.17l.07-.07h.08a.36.36 0 0 0 .14-.07v-.07h.05l.06-.07.12-.11h.05v.07l.12.08v-.06a.29.29 0 0 1 0-.09.23.23 0 0 0 0-.06v-.05A.13.13 0 0 1 121 27h.19a.12.12 0 0 0 .11 0c.05 0 0 0 0 0v-.16a.26.26 0 0 1 .07-.09.42.42 0 0 0 0-.05.23.23 0 0 0 0-.06v-.11a.27.27 0 0 1 0-.1.38.38 0 0 1 .06-.1.54.54 0 0 1 .05-.07v-.08a.48.48 0 0 1 0-.07h.05l.06-.06.11-.14h.09v-.01s.05 0 0 0v.1h.21a.12.12 0 0 1 0-.11v-.07a.09.09 0 0 1 .05 0l.16-.12a.07.07 0 0 1 0-.06h-.09a.15.15 0 0 1 0-.07v-.09h-.11a.15.15 0 0 0-.08.08.42.42 0 0 1-.11.14h-.23a.11.11 0 0 1-.05-.07v-.06h.05l.18-.11h.09v-.06h.24v-.06a.3.3 0 0 0 .07-.08h.2l.07-.06h.21a1 1 0 0 0 .14-.08h.07c.07 0 0 0 0 0h.09a.1.1 0 0 0 .06 0l.05-.07a.13.13 0 0 1 0-.06l.05-.07.06-.06.06-.06.06-.06h.3a.15.15 0 0 0 .08-.08l-.26.07a.09.09 0 0 1 0-.05h-.09a.3.3 0 0 1-.07.06l-.41.12a.05.05 0 0 0-.05 0v.06h-.3a.72.72 0 0 0-.2.15h-.05a.09.09 0 0 1-.1 0h-.1v-.32a.1.1 0 0 0-.08 0h-.11v-.21a.28.28 0 0 1 0-.17.74.74 0 0 1 .07-.09.24.24 0 0 0 0-.08v-.15a.21.21 0 0 1 .12-.13h.05v-.06l.06-.07a.06.06 0 0 0 .06 0l.06-.07v-.06h.25l.08-.05.07-.06.08-.11a.71.71 0 0 0 0-.14l.16-.06v-.14h-.06v.05h-.06a.09.09 0 0 0 0-.07h-.1a.16.16 0 0 0-.09 0v.06l-.06.1-.06.07-.07.06v.05a.63.63 0 0 0-.1.16.14.14 0 0 1 0 .07.16.16 0 0 1-.05.08h-.12v.05l-.07.06a.06.06 0 0 1 0 .05h-.16a.07.07 0 0 1 0 .06h-.05l-.06.07-.11.09h-.05v.06l-.07.12a.19.19 0 0 1 0 .06.29.29 0 0 1-.06.07v.06h-.05l-.14.42h.06a.77.77 0 0 1-.05.16h.21v.17l-.06.07v.05a.1.1 0 0 1 0 .07v.06l-.06.07-.06.07a.17.17 0 0 0-.05 0v.06l-.05.13v.11l-.05.07-.07.11v.07h.17a.16.16 0 0 1 0 .08.09.09 0 0 1 0 .06l-.16.05-.05.18a.19.19 0 0 0-.1 0 .37.37 0 0 1-.05.07h-.75l-.06.07-.05.08v.09l-.29.11v.37l.06-.1v-.14a.52.52 0 0 1 0-.09v-.07a.09.09 0 0 1 0-.07s.05 0 .06-.07v-.32a.64.64 0 0 0 0-.11v-.17h-.05v.11l-.05.05-.05.08-.08.11-.06.08v.17a.31.31 0 0 1-.1.08l-.08.06V27H119v-.21a.9.9 0 0 0 .05-.13l-.13.06v-.12a.09.09 0 0 1 0-.07v-.22h-.08v-.1a.07.07 0 0 1 0-.06.25.25 0 0 0 0-.09v-.42l.06-.08v-.1l.08-.07.12-.09v-.39h.15a.18.18 0 0 0 .07-.07v-.16l.06-.07h.06v-.05h.05v-.06h-.07a.26.26 0 0 0 0-.07l.05-.05h.06l.05-.05v-.06l.1-.08.05-.05v-.06a.4.4 0 0 1 0-.09v-.05l.06-.07v-.1l.05-.05h.15s0-.06.09-.11a.22.22 0 0 1 .11-.06v-.21h.12v-.06l-.11.05a.23.23 0 0 0-.11.06h-.05v.06h-.11v.06l.1-.17.06-.07.07-.07h.15a.24.24 0 0 0 0-.06l.11-.09a.1.1 0 0 0 .06 0l.05-.11.08-.06-.08.13h.09v-.13h.09v-.06h.06a.07.07 0 0 0 .07 0l.08-.06a.14.14 0 0 0 .05 0 .45.45 0 0 1 .07-.1.1.1 0 0 0 0-.05.21.21 0 0 1 0-.07h.14c.05 0 0 0 0 0h.11v.09h.06v-.05l.06-.11h.19a.8.8 0 0 0 .1 0h.09v-.09h-.18.06l.08-.05.15-.08.16-.07H122v.05h.05l.08-.05a.29.29 0 0 0 .08-.09l.07-.07h.14l.13-.1h.05a.55.55 0 0 1-.05.12h-.17l-.05.12.16-.06a1.62 1.62 0 0 1 .1-.21h.15v.06h.05s0-.07.05-.12l.34-.13h-.05v.05a.18.18 0 0 0 0 .08l.13-.05a.52.52 0 0 1 .05-.12h.09v.06h.21v.09h-.11.16l.13-.06h.11a.28.28 0 0 0 .07-.06h.06l.16-.05v.1h.1l-.06.08v.05h.18a.2.2 0 0 1 0-.07h.16a.23.23 0 0 1 .06.05h.91a.38.38 0 0 0 .1 0h.36a.15.15 0 0 1 0 .07.33.33 0 0 1 0 .13.21.21 0 0 1 0 .1v.05h-.14l-.09.06h-.18l-.13.07h-.21H127h-.4l-.4.11h-.1l-.2.06h-.39v.06h.2a.12.12 0 0 0 0 .07.56.56 0 0 1 .17 0 .12.12 0 0 1 0 .09.82.82 0 0 1-.09.21.89.89 0 0 0-.06.17L126 22a.76.76 0 0 1 0 .15.07.07 0 0 0 .07.06h.07a.33.33 0 0 1 .15 0h.11a.06.06 0 0 1 0-.05l.31-.08a.18.18 0 0 0 .06-.06.39.39 0 0 0-.11 0 .83.83 0 0 0-.13 0h-.07V22h-.05v-.06a.13.13 0 0 1 .08-.08.06.06 0 0 1 .07 0 .71.71 0 0 0 .06-.06h.06a.06.06 0 0 0 0 .06h.79a.19.19 0 0 1 0-.07.06.06 0 0 0 0-.08h-.11v-.1a.36.36 0 0 0 .21 0h.07v-.05h.41V21h.26a.26.26 0 0 1 .07 0h.15v.05h.47a.29.29 0 0 1 0-.14.08.08 0 0 0 .07 0h-.12v-.1h.07a.1.1 0 0 0 0-.05l.09-.28h-.17a.19.19 0 0 1 0-.1h.39a1.06 1.06 0 0 0 .14-.05.1.1 0 0 1 .06 0 .52.52 0 0 1 0 .15l-.35.07a.29.29 0 0 0 0 .11.05.05 0 0 0 0 .06.25.25 0 0 1 .06 0h.08a.48.48 0 0 0 .11-.06h.28l.15-.07a.07.07 0 0 0 0-.07l.09-.06.25-.05h.09l.14-.1.09-.05h.54v-.06h.06a.73.73 0 0 1 .21 0h.11l.13-.06a.18.18 0 0 0 .07-.06h.36a.08.08 0 0 1 .11-.05l-.1.1v.05h.07a.06.06 0 0 1 .05 0h.21a.27.27 0 0 1 0-.11h.66a.17.17 0 0 0 .07-.05h.44v-.05h.25a.09.09 0 0 0 0 .09.38.38 0 0 1 0 .1h.08a.11.11 0 0 0 .08 0v-.05h.21a.26.26 0 0 0 .12-.09h-.29v-.1h-.34a.05.05 0 0 0 0-.05.12.12 0 0 1-.05 0h-.07a.07.07 0 0 1 0-.06.22.22 0 0 1 .08 0 .25.25 0 0 1 .12-.49h.65a.82.82 0 0 0 .14 0h1.15a.06.06 0 0 0 0 .05.15.15 0 0 0 .07 0h.42a.5.5 0 0 0 .21 0h.14a.12.12 0 0 0 .08.15h.43a.67.67 0 0 0 .08 0v-.61h.03l-.1-.07h-.06a.17.17 0 0 0-.09 0h-.28v-.15h.16a.09.09 0 0 0 0-.09.46.46 0 0 1 0-.08.3.3 0 0 0-.11-.07h-.06v-.27a.05.05 0 0 1 0-.06h.35a.06.06 0 0 1 0-.05.32.32 0 0 0 0-.08l.14-.09h.06a.39.39 0 0 1 .08-.08.21.21 0 0 1 0-.11h1.26a.86.86 0 0 0 0 .23h-.21a1 1 0 0 1 0 .24.15.15 0 0 1 0 .08s.07 0 .07.08a.29.29 0 0 1 0 .13.15.15 0 0 0 0 .09v.17a.24.24 0 0 0 0 .11v.07h.32v.19a1 1 0 0 1-.06.1.12.12 0 0 0-.08 0h-.08c-.02 0 0 0 0 0a.48.48 0 0 1-.13.09.12.12 0 0 0-.08 0 .49.49 0 0 1-.07.1.27.27 0 0 1-.08 0h-.08a.57.57 0 0 0-.08 0h-.58l-.05.05-.07.05h.53a.1.1 0 0 1 .06 0h.38l.05-.05a.48.48 0 0 1 .15-.06l.23-.09h.13a.26.26 0 0 1 0-.12.07.07 0 0 0 .06 0h.18a.09.09 0 0 0 .08 0 .27.27 0 0 0 0-.12.25.25 0 0 0-.06-.11.11.11 0 0 1 .08 0h.8v.05a.13.13 0 0 1 .08 0 .2.2 0 0 1 .1.09v.11a.14.14 0 0 0 0 .12.08.08 0 0 0 .08 0h.5-.29a.1.1 0 0 1-.06 0h-.16.14a.17.17 0 0 0 0-.09h-.14V19s0-.06-.08-.09h-.14l-.14-.06a.16.16 0 0 1-.06 0h-.08a.12.12 0 0 0-.08 0h-.06a.08.08 0 0 0-.06 0H139s-.06-.05-.06-.09v-.1a.18.18 0 0 1 .08-.06v-.3l-.13-.07a.28.28 0 0 1-.15-.11.08.08 0 0 1 .08-.09h.18v-.1h.3v-.3h.13l.07.08a.17.17 0 0 0 .09 0h-.06v.2a.16.16 0 0 1 .06 0 .07.07 0 0 0 .06 0h.35a.24.24 0 0 1 .08 0h.12a.41.41 0 0 1 .08 0h.15c.06 0 0 0 .06.06h-.2a.77.77 0 0 0-.21-.05h-.18a.15.15 0 0 1-.17-.09c0-.05 0 0 .06 0h.21a.29.29 0 0 0 .06 0h.15c-.06 0 0 0 0 0H140a.65.65 0 0 1 .2 0h.35a.31.31 0 0 0 .15 0h.95c.09 0 .15 0 .16-.05v-.07h-.08a.07.07 0 0 0-.06 0h-.27a.44.44 0 0 1-.17 0v-.28a.19.19 0 0 0-.06 0h-.14s.07-.05.13 0h1.25a1 1 0 0 1 .11 0h.62v-.33h-.29a.2.2 0 0 1-.08-.08.15.15 0 0 1 .07 0h.34a.07.07 0 0 0 .05 0h2.58L146 17h.51v-.05l.66.05h-.07 1.26v.06h-.16.32l.3.08h-.07.25a.2.2 0 0 1 0-.09h.16l.12.08h.43l.4.11a.29.29 0 0 0 .06.1h.17l.08.05.05.05h.06a.23.23 0 0 0 .07 0 .05.05 0 0 0 0 .05l-.19.51a.05.05 0 0 1 0 .06h-.72a.17.17 0 0 0-.09 0h-.07a.21.21 0 0 1-.11 0h-.09.67a.2.2 0 0 0-.07-.07h.05l.34.09h.48-.3l.08.05h.29a.25.25 0 0 0 0 .06h.42l.15.06h.1l.25.08h.29l.17.67a.19.19 0 0 1 0 .07.22.22 0 0 0 .06.08h.24l.08.06.13.06h.08l.16.22a.22.22 0 0 0 .13 0h.05l.32.12h-.1l-.08-.09h.26l.12.08h.05l.13.07h.11a.54.54 0 0 0 .16.1h.05c-.02 0 0 0 0 0h.21l.08.06h.06l.12.17v.07a.42.42 0 0 0 .05.09.13.13 0 0 0 .05.09.2.2 0 0 0 0 .07v.06l.23.15h.05l.08.06h.06l.07.06h.06a.35.35 0 0 1 .08.12l.25.23v-.08l-.06-.11a.6.6 0 0 0-.05-.09.72.72 0 0 1 .14.1l.05.05.27.13.13.11h.09c.02 0 0 0 0 0h.09v.05h.06l.05.05h.05l.11.09a.23.23 0 0 0-.08-.12h-.06v-.06l.11.07h.05l.4.31v-.12l-.05-.05v-.06h.08l.2.11v-.07l-.23-.09.11.07.08.06h.06l.08.06h.07l.09.09.05.05h.07v.06l.28.39q-.67-.74-1.39-1.43c-.73-.69 0 0 0 0h-.07l-.11-.06-.14-.11v.05h-.15l-.03-.2h-.12l-.17-.25v-.11l-.06-.08.2.11a25 25 0 0 0-30.07-2.36h.07l.13-.08h.26a.45.45 0 0 0 .11-.06h.18-.23l-.1.07h-.06l-.11.06h-.12l-.08.06h-.06l-.11.05h-.29l-.21.1-.31.21.08-.06h.25v.05h.06v.09l.28-.12V18l.11-.05h.13l-.11.06-.25.11-.11.05-.11.07-.16.11h-.09a.44.44 0 0 1 .11-.1v-.06h-.17a.26.26 0 0 1 .07-.07l-.3.14-.12.09h-.07l-.09.13h-.15l-.06.05v.07l-.12.09h-.5a25.09 25.09 0 0 0 33.74 37.15.11.11 0 0 1 0-.07zm.09-5.58a.15.15 0 0 0-.06.09v.1l.07-.06h.2v-.13h-.01l-.11.06h-.11zm4.77-2.47v-.12h-.07v.1zm-.34-.53a.06.06 0 0 0 0 .06v.05-.15a.11.11 0 0 0 0-.06v-.08.07a.11.11 0 0 1 0 .07zm-.75.21a.42.42 0 0 1 0 .1l.13-.07h.05a.08.08 0 0 0 .06 0h.06a.13.13 0 0 1 0-.06v-.2a.3.3 0 0 1 0-.11v-.06a.16.16 0 0 0 0-.07v-.11.06a.69.69 0 0 0 0 .1.09.09 0 0 1 0 .09.31.31 0 0 1-.12.05h-.06a.25.25 0 0 0-.11.06.74.74 0 0 1 0 .11zm-3.34 1.88v.05h.14l.06-.07a.27.27 0 0 0 .05-.1.38.38 0 0 0 0-.14v-.1a1.29 1.29 0 0 0-.2.19.87.87 0 0 1 0 .17zm-1.21.14v.12h.05a.79.79 0 0 1 .06-.06h.1a.12.12 0 0 0 .06-.09l-.24.06zm2.12-1.17a.16.16 0 0 1-.06.07.31.31 0 0 0 0 .07v.1a.53.53 0 0 0 0 .06.2.2 0 0 0 0 .08h.07l.06-.07a.41.41 0 0 0 0-.06 1 1 0 0 0 .11-.24l-.06.07zm-.21-.42a.12.12 0 0 1 0-.07h.09a.09.09 0 0 1 .08 0 .15.15 0 0 0 .07.06v.07h.45a.11.11 0 0 1 .06.05.15.15 0 0 1 0 .1.06.06 0 0 1 0 .05.25.25 0 0 1 0 .17v.06a.36.36 0 0 1 0 .07.41.41 0 0 1-.09.13v.05l-.05.07v.08s0 .09.05.08a.34.34 0 0 0 .11-.09v-.05a.09.09 0 0 1 0-.06s0-.06.06-.07a.09.09 0 0 1 .1 0h.07a.09.09 0 0 0 .07 0 .05.05 0 0 0 .06 0h.15v-.18a.56.56 0 0 0 0-.1.07.07 0 0 0 .05 0l.09-.09.05-.08a.37.37 0 0 1 .1-.13h.14v.17a.09.09 0 0 1 0 .05v.2h.05l.12-.08a.11.11 0 0 1 .05 0 .06.06 0 0 1 .05.05.78.78 0 0 1 0-.16v-.06.13h-.06l.09-.35-.14.07.07-.28.12-.05v-.19l-.16.08v-.3a.08.08 0 0 0 0-.09h-.16v-.15h-.06a.22.22 0 0 0-.06 0h-.11a.35.35 0 0 1-.11 0 .36.36 0 0 1-.06-.05.11.11 0 0 0-.06-.05h-.08a.07.07 0 0 0-.06 0h-.07a.11.11 0 0 1 0 .08.21.21 0 0 1-.1.08h-.09l-.05.07a.2.2 0 0 1 0 .13v.08a.21.21 0 0 1-.09.05h-.17v-.07h-.08l-.06.07-.28.08v.13h.08a.23.23 0 0 1 0 .07.25.25 0 0 1 0 .13h.07v-.05zm-1.81-.24a.17.17 0 0 1 0 .09h.36a1.06 1.06 0 0 1 0-.14h-.24zm2.51-.84v.33l.21-.05v-.07h-.09a.21.21 0 0 1 0-.13v-.1h-.14zm-1 .26h-.06a.64.64 0 0 0-.11.09.18.18 0 0 1 0 .07h.24c.06 0 0 0 0 0v.08h.39a.16.16 0 0 0 .06-.07.08.08 0 0 0 0-.07.63.63 0 0 1 0-.2.27.27 0 0 0 0-.07v-.03a.09.09 0 0 0-.1 0 .2.2 0 0 0-.1 0 .28.28 0 0 1-.06.07h-.25a.38.38 0 0 0-.06.07v.08l.05-.11zm0-.11a.33.33 0 0 0 .09-.16.07.07 0 0 0 0-.08h-.05a.08.08 0 0 0 0 .06 1.21 1.21 0 0 1-.07.15c0 .06.05 0 .08.06a.08.08 0 0 0 .09 0zm-.31.48a.22.22 0 0 0 0 .06v.11h.15a.4.4 0 0 1 0-.19h-.13a.65.65 0 0 1 0 .11.16.16 0 0 0 0-.07zm-.51.48a.14.14 0 0 1 0 .08v.05h.15a.62.62 0 0 0 .1 0h.34a1.24 1.24 0 0 1 0-.18h-.52a.08.08 0 0 0-.08 0v.13a.22.22 0 0 1 0-.06zm-.21.1h-.2v.12a.06.06 0 0 0 0 .06h.15v-.18zm.6-1.91l-.11.15-.06.08-.04.11a.21.21 0 0 0 0 .08v.27a.8.8 0 0 1 0 .14.31.31 0 0 0 0 .07.48.48 0 0 0 0 .13v.21l.11-.06a1 1 0 0 1 0-.16 1.31 1.31 0 0 0 0-.19h.17v-.1a.1.1 0 0 0 0-.1.16.16 0 0 1 0-.08.75.75 0 0 0 0-.08 1 1 0 0 0-.11 0 .71.71 0 0 1 0-.1.24.24 0 0 1 0-.08.26.26 0 0 0 0-.08v-.2zM154.9 49a.11.11 0 0 0 0 .1h.22v.09a.62.62 0 0 1-.06.14.24.24 0 0 1 0 .08.37.37 0 0 0 0 .07.27.27 0 0 0 0 .08v.07a.29.29 0 0 0 0 .07v.06l.06-.05a.33.33 0 0 1 .07-.07.76.76 0 0 0 0-.16v-.15a.36.36 0 0 1 0-.09l.07-.45h.17a.91.91 0 0 1 0 .14v.09V49h.22v.2a.15.15 0 0 1 0 .07v.22h.25a.14.14 0 0 1 0-.08v-.09a1 1 0 0 0 0-.17h-.06a.11.11 0 0 1 0-.07.14.14 0 0 1-.05 0 .19.19 0 0 1 0-.1 1 1 0 0 1 0-.11.17.17 0 0 0 0-.06v-.09a.07.07 0 0 0 0-.06h-.11c-.06 0 0 0 0-.07v-.11a.38.38 0 0 0 .18 0 .16.16 0 0 0 .14-.18h.27a.14.14 0 0 0 .06-.1.22.22 0 0 0 0-.06.05.05 0 0 0 0-.06.07.07 0 0 0-.05 0h-.11L156 48l-.05.08a.42.42 0 0 1-.18.16h-.34a.11.11 0 0 0-.06.07 1 1 0 0 0-.1.16v.1a.29.29 0 0 1 0 .07v.14l-.07.07h-.06l-.05.08a.32.32 0 0 0-.09.07zm1.85-1.77v.08l-.92.16a.53.53 0 0 0-.13.14h-.12a.31.31 0 0 0-.18.07l-.05.08a.28.28 0 0 0 0 .12V48l.2-.14c.08-.06 0 0 .05 0a.53.53 0 0 0 .05-.08h.2a.19.19 0 0 0 .06-.07h.09l.34-.06h.06a.29.29 0 0 0 .07.06h.15a.48.48 0 0 1 .05-.08h.11l.05-.08a.48.48 0 0 0 .07-.16.16.16 0 0 0-.13 0zm-.9 3.6v.08h.15a.25.25 0 0 0 .11-.13l.13-.14.08-.1h.16a1.77 1.77 0 0 0 .13-.14.25.25 0 0 1 .11-.06.13.13 0 0 0 .11 0h.05c.05 0 0 0 0-.06h-.2a.73.73 0 0 1-.07.08h-.06l-.06.06a.09.09 0 0 0-.07 0h-.06a.11.11 0 0 1 0 .08.19.19 0 0 1-.1 0 .14.14 0 0 0-.07 0 .36.36 0 0 0 0 .07l-.06.06a.23.23 0 0 0-.07.1zm-.16.29l-.12.09v.1l.17-.05a.51.51 0 0 1 0-.11zm-.74-.43a.26.26 0 0 0 .1.07 1.67 1.67 0 0 0 .31-.07l.25-.07h.16l.07-.05a.33.33 0 0 1 .07-.08h.22a.34.34 0 0 0 .06-.06v-.12h-.05a.63.63 0 0 0-.06.06.66.66 0 0 0-.17 0l-.12.07h-.33a.7.7 0 0 0-.06 0h-.35a.52.52 0 0 0-.08.06h-.07zm-.13.22l-.13.1c-.05 0 0 0 0 .06v.07h.08a.21.21 0 0 0 .12 0h.17v-.07H155a.19.19 0 0 1 0-.05h-.19zm-.68-.11a.12.12 0 0 0-.11.09v.05a.34.34 0 0 0 .18 0h.19a.15.15 0 0 1 0-.06h.32a.28.28 0 0 1 0-.09h-.46a.17.17 0 0 1-.05.06h-.1zm-3.44 0v.09h.21v.16h.28v.06l.06.06h.1a.61.61 0 0 0 .19-.1h.34a.23.23 0 0 1 .14 0v.07c0 .02 0 0 .07 0h.06a.89.89 0 0 1 .14 0h.15a.3.3 0 0 1 .11.08.19.19 0 0 0 .06 0h.22v-.14a.24.24 0 0 1 0-.08h.05a.19.19 0 0 0 .06 0h.12a.38.38 0 0 0 .11-.06.24.24 0 0 1 .1 0h.06a.3.3 0 0 0 0 .06.27.27 0 0 0 .11.06.19.19 0 0 0 .13 0h.06a.17.17 0 0 0 .08-.06v-.11a.1.1 0 0 0 0-.06h-.07a.11.11 0 0 1-.08-.11 4 4 0 0 1-.48.09v-.05a.19.19 0 0 1 0-.07h.19l.13-.08h-.37a.94.94 0 0 0-.12 0h-.28a.41.41 0 0 1-.11-.05h-.12l-1.73.29zm-1-.38a.38.38 0 0 1-.06.07.21.21 0 0 0 0 .08h.06v-.2zm2.77-2.77h-.14a.7.7 0 0 1-.06.3.36.36 0 0 1-.08.06.3.3 0 0 0 0 .08.5.5 0 0 0 0 .16.42.42 0 0 0 0 .16v.08h.06a.31.31 0 0 1 .13.06.14.14 0 0 1 0 .07.06.06 0 0 1 .06 0 .12.12 0 0 1 0 .11v.08a.88.88 0 0 1 0 .11.29.29 0 0 0 0 .11v.07a.12.12 0 0 0 0 .07.08.08 0 0 1 .06 0h.13a.27.27 0 0 1 .14 0h.07v.23a.12.12 0 0 0 .11.08h.18a1.46 1.46 0 0 0 .17-.11.16.16 0 0 1 .09 0 .35.35 0 0 0 .06 0v.07a.93.93 0 0 0 .11-.08.23.23 0 0 1 .14.08s0 .06.05.06h.28a.85.85 0 0 1 0-.14.13.13 0 0 1 0-.07h.14a.19.19 0 0 0 .06-.11 1 1 0 0 0 0-.11.13.13 0 0 1 0-.05.29.29 0 0 1 0-.09.13.13 0 0 1 .05-.07l.07-.06v-.08l.06-.09a2.09 2.09 0 0 0 .08-.22h.18l.06-.38h.35a.13.13 0 0 0 .07-.09v-.13h-.24a.18.18 0 0 1 0-.1v-.31a.9.9 0 0 0 0-.11v-.08a.29.29 0 0 1 0-.13v-.37h.22a.56.56 0 0 1 0-.09.15.15 0 0 1 0-.07.21.21 0 0 1 0-.07h.06a.94.94 0 0 0 .07-.09l.12-.06a.23.23 0 0 0 0-.15.15.15 0 0 0-.12 0h-.19a.05.05 0 0 1-.06 0h-.06a.18.18 0 0 1 0-.07V46l-.05-.06a.14.14 0 0 0-.05-.13h-.12v.08l-.07.08a.12.12 0 0 1-.06.09l-.13.05a.17.17 0 0 0-.07.08l-.07.08-.06.09a.16.16 0 0 1 0 .08v.08a.2.2 0 0 1-.07.08l-.06.08a.11.11 0 0 1-.06.08h-.07a.47.47 0 0 0-.21.06.22.22 0 0 0-.08.09l-.07.06-.06.1a.11.11 0 0 1 0 .08h-.07l-.08.07-.07.06-.06.08a.23.23 0 0 1-.1.06H153a1.22 1.22 0 0 1 0 .39h-.12a.21.21 0 0 0-.07 0h-.2a.18.18 0 0 1-.13-.11h-.06zm-3.89 1.49v.15a.5.5 0 0 0 .09.14.7.7 0 0 0 .11.14.77.77 0 0 0 .12.13.07.07 0 0 0 0 .07h.1v.13a.19.19 0 0 0 0 .07.09.09 0 0 0 .07 0 2.58 2.58 0 0 0 0-.3H149a.11.11 0 0 0-.07-.07h-.17a.11.11 0 0 1-.06-.07.11.11 0 0 1 0-.07.12.12 0 0 0 0-.07v-.18a.31.31 0 0 0 0-.15.31.31 0 0 0-.14-.07l-.05.09zm-.55-.8a.38.38 0 0 0 .13.16l.09.08a.06.06 0 0 1 .07.06.35.35 0 0 1 .06.1v-.13a.32.32 0 0 0 0-.16.26.26 0 0 1-.08 0 .41.41 0 0 0-.12-.15h-.08a.11.11 0 0 0 0 .08.19.19 0 0 1 0 .07.18.18 0 0 0 0-.07zm-.26-.48a.08.08 0 0 0 0-.07l-.07-.06v.08a.25.25 0 0 0 0 .07.46.46 0 0 1 0 .08V48h.16a.27.27 0 0 0 0-.07.19.19 0 0 1-.13-.11zm.19-.91h-.08l-.08-.06h-.07a.92.92 0 0 0-.15-.11.24.24 0 0 0-.08 0 .67.67 0 0 0-.08 0v.08a1 1 0 0 0 .07.16.29.29 0 0 0 .08.08.45.45 0 0 0 .08.09l.08.07a.29.29 0 0 0 .08.08l.15.05a.16.16 0 0 1 .08.07.18.18 0 0 1 0 .08s.06 0 .08.07a.36.36 0 0 1 0 .15.14.14 0 0 0 0 .1v.07h.23a.25.25 0 0 1 .1.13.48.48 0 0 1 .05.14v.15a.28.28 0 0 0 0 .08.34.34 0 0 0 .05.07 1.39 1.39 0 0 0 .14.12.87.87 0 0 0 .15.11l.16.08a1.7 1.7 0 0 0 .1.14.47.47 0 0 1 .12.14.72.72 0 0 1 .06.14.65.65 0 0 1 0 .17.06.06 0 0 0 0 .07.33.33 0 0 1 .06.14c0 .06.05 0 .08.06a.26.26 0 0 0 .06.09l.06.07a.34.34 0 0 0 0 .07l.16.1a1.48 1.48 0 0 0 .11.13.13.13 0 0 1 .06.07.14.14 0 0 1 0 .07l.14.1a.61.61 0 0 1 .12.11h.07a.1.1 0 0 1 0 .08s.05 0 .08-.05h.37a.18.18 0 0 0 .08-.08.4.4 0 0 1 .06-.08v-.32a1.18 1.18 0 0 1 0-.14v-.08a.07.07 0 0 1 0-.07.21.21 0 0 1 .1-.08h.11a.24.24 0 0 1 .06 0 .52.52 0 0 0 .09-.07v-.06a.1.1 0 0 0 0-.08.06.06 0 0 0-.06-.07h-.14a.26.26 0 0 0 0-.08l.08-.08v-.04a.11.11 0 0 0-.07 0h.04-.2a.11.11 0 0 1 0 .08v.08h-.19a.59.59 0 0 1 0-.15.85.85 0 0 1 0-.15.52.52 0 0 1-.05 0h-.26a.12.12 0 0 1-.06-.06.14.14 0 0 0-.07 0 .18.18 0 0 1-.09 0 .18.18 0 0 1 0-.09 1.32 1.32 0 0 1 0-.39h-.29a.15.15 0 0 1-.06-.08h-.07a.22.22 0 0 1 0-.08.44.44 0 0 0 0-.07.46.46 0 0 1 0-.08V48a.38.38 0 0 0 0-.08h-.3a.14.14 0 0 1-.09 0l-.08-.07v-.06a.13.13 0 0 0-.08 0 .44.44 0 0 1 0-.08l-.11-.06-.07-.06a.75.75 0 0 1-.08-.07h-.1a.19.19 0 0 0 0-.08l-.15-.05a.09.09 0 0 0-.08 0 .19.19 0 0 1 0-.08v-.12a.1.1 0 0 0-.08 0 .49.49 0 0 1-.08-.09.61.61 0 0 1-.08-.18c-.1 0-.21.11-.31.11v-.09zm8.89-2.1h-.21V45h-.23v.08a.29.29 0 0 1 0 .07 1.24 1.24 0 0 1 0 .37v.06a.67.67 0 0 1 0-.08v-.13a.28.28 0 0 1 0-.08h.06s0-.06.07-.07a.34.34 0 0 0 .12 0h.17v.15a.39.39 0 0 0 0 .13v.07h.23v.15h.06v.06h.06v-.09a.23.23 0 0 0 0-.06.42.42 0 0 1 0-.06 1.34 1.34 0 0 0 0-.14.12.12 0 0 1 .06-.06h.17v-.2c0-.27 0-.27.05-.54a.43.43 0 0 0 0-.08v-.11a.08.08 0 0 0-.08-.09.08.08 0 0 0-.06.08v.09a.55.55 0 0 1 0 .07.23.23 0 0 1-.11.08h-.05a.38.38 0 0 0-.06.06l-.06.08a.15.15 0 0 1 0 .09.18.18 0 0 1-.11 0h-.05v-.1h-.06zm-.71-1.65v.1a.14.14 0 0 0 0 .12.15.15 0 0 0 .06.05h.16a2.14 2.14 0 0 0 0 .23.24.24 0 0 1 0 .08.54.54 0 0 1 0 .17.23.23 0 0 1 0 .12.06.06 0 0 0 0 .07.27.27 0 0 0 .05.05.5.5 0 0 1 .05 0 .15.15 0 0 0 .11 0 .21.21 0 0 1 0 .08.44.44 0 0 0 0 .07.62.62 0 0 1 0 .08.14.14 0 0 0 0 .08h.21a.1.1 0 0 0 0-.08.13.13 0 0 1 .06 0 .21.21 0 0 1 .1 0v-.11a.13.13 0 0 0-.06-.13h-.05a.06.06 0 0 1-.05-.05V44a.07.07 0 0 0-.05-.05.08.08 0 0 0-.05 0h-.05a.17.17 0 0 1 0-.08v-.33a.22.22 0 0 0-.1-.11.28.28 0 0 0-.11-.06v-.08h-.06a.18.18 0 0 0-.1 0zm.42-.1a.48.48 0 0 0 .12.1.13.13 0 0 0 .05 0 .2.2 0 0 1 .05 0h.06a.09.09 0 0 1 0 .07.06.06 0 0 1 .05 0 .27.27 0 0 0 .05.07.31.31 0 0 0 0 .08v.07a.17.17 0 0 0 0 .08.06.06 0 0 1 .05 0 .53.53 0 0 1 .1.12.07.07 0 0 1 .05 0 .13.13 0 0 1 0 .07.48.48 0 0 1 0 .15h.22a.39.39 0 0 1 0-.08.32.32 0 0 1 0-.15c0-.06 0 0 0 0a.32.32 0 0 0-.07-.21.06.06 0 0 1-.05 0 .36.36 0 0 1 0-.08.34.34 0 0 1 0-.09v-.07a.18.18 0 0 0-.06-.05h-.05a.14.14 0 0 1 0-.06v-.22h-.23a.19.19 0 0 0-.11 0 .55.55 0 0 0 0 .07.17.17 0 0 1-.06 0h-.06a1.17 1.17 0 0 0-.15.06zm-.57.38v.08l-.11.18v.09a.22.22 0 0 1 0 .08v.08a.3.3 0 0 1-.07.07.16.16 0 0 1 0 .08v.08c0 .08 0 0-.06.05a.17.17 0 0 0 0 .09.58.58 0 0 0 0 .07.17.17 0 0 1 0 .07l-.05.09a.07.07 0 0 1 0 .08.18.18 0 0 0-.12 0 .06.06 0 0 0 0 .08l-.07.07h-.12a.18.18 0 0 0-.05.09.73.73 0 0 0-.06.16H155h.13l.07-.07.06-.09v-.08a.35.35 0 0 1 .1-.14h.12a.3.3 0 0 0 .14 0 1.4 1.4 0 0 1 0-.14.86.86 0 0 1 .06-.16.53.53 0 0 1 .09-.15.55.55 0 0 0 .07-.05.18.18 0 0 1 .06 0 .32.32 0 0 0 0-.1 1.06 1.06 0 0 0 0-.16v-.5zm.33-2.26h-.14v.18a.48.48 0 0 0 0 .05.44.44 0 0 1 0 .07.48.48 0 0 1 0 .05.62.62 0 0 0 0 .09V42c0 .07 0 0 0 0h-.07l-.06.06v.1a.11.11 0 0 0 0 .06v.06a.09.09 0 0 0 .07 0 .43.43 0 0 0 0 .15.17.17 0 0 0 0 .07.13.13 0 0 0 0 .08h.21v-.11a.2.2 0 0 1 0-.1l.06-.08a.51.51 0 0 0 0-.05.41.41 0 0 1 0-.1.63.63 0 0 0 0-.09v-.25a.4.4 0 0 0 0-.09v-.28h.01v-.13a.09.09 0 0 1-.06 0zm.32-2.42v-.13h-.17a.21.21 0 0 1 0 .07l-.06.07a.06.06 0 0 0-.06.05.36.36 0 0 1 0 .09.09.09 0 0 1 0 .07.07.07 0 0 1-.06 0 .52.52 0 0 1 0 .07.54.54 0 0 0 0 .15v.67h.18v-.18a.7.7 0 0 1 0-.09.43.43 0 0 1 0-.07.36.36 0 0 1 .06-.07v-.07a.65.65 0 0 0 0-.09.3.3 0 0 1 .06-.09v-.07l.1-.15a.14.14 0 0 0 0-.07.36.36 0 0 0 0-.07v-.06a.13.13 0 0 1 0-.05zm4.85-7v.2h-.3a.08.08 0 0 0 0 .05l-.25-.05a.62.62 0 0 1-.12-.13v-.06a1.34 1.34 0 0 1-.07-.14v-.12l-.12-.08-.05-.05v.05a.4.4 0 0 0 0 .16v.17a.22.22 0 0 1 0 .07V32a.16.16 0 0 0 0 .05.19.19 0 0 0 0 .05.61.61 0 0 0 0 .18v-.14.12a.58.58 0 0 0 0 .07.21.21 0 0 0 0 .15.3.3 0 0 0 0 .11V33a.34.34 0 0 0-.14 0 1 1 0 0 0 0 .13.35.35 0 0 0 0 .07v.49a.86.86 0 0 1 0 .15v.07a.09.09 0 0 0 0 .07.65.65 0 0 0 0 .12v.08a.26.26 0 0 1 0 .1v-.1a1 1 0 0 0 0-.13.48.48 0 0 0 0 .09v.13a.4.4 0 0 0-.15 0 1 1 0 0 0 0 .28v-.08a.48.48 0 0 1 0-.13v.29a.1.1 0 0 1-.08 0 1.57 1.57 0 0 0 0 .42h-.09a.23.23 0 0 1 0-.08.29.29 0 0 1 0-.05.15.15 0 0 1 0 .13.31.31 0 0 1-.09 0 .47.47 0 0 0-.14 0h-.09a.13.13 0 0 0-.07.12.3.3 0 0 0 0 .07.6.6 0 0 0 0 .06h-.21a.29.29 0 0 0 0 .08v.14c0 .06-.07 0-.11 0a.09.09 0 0 1 0 .07v.29a.05.05 0 0 0 .06 0h.21V36a.42.42 0 0 1 0 .06.9.9 0 0 1 0 .09.16.16 0 0 0 0 .06v.06a.56.56 0 0 0 0 .12.17.17 0 0 0 .13.18h.09v-.22a.48.48 0 0 1 0-.14.16.16 0 0 1 .09 0 .13.13 0 0 0 .09-.13.71.71 0 0 0-.07-.19.11.11 0 0 1 0-.08v-.16h-.11v-.08h-.9a.12.12 0 0 0 .1-.08.37.37 0 0 1 .13-.13c.06 0 0 0 0 0h.39v.07h-.13a.46.46 0 0 1-.17.11.83.83 0 0 0-.22 0 2.62 2.62 0 0 0 0 .48h.09a.32.32 0 0 0 .06 0l.08-.08v-.22a.09.09 0 0 0 .09 0v-.18a.09.09 0 0 1 0 .06.23.23 0 0 1 0 .08v.06a.11.11 0 0 1 .07 0l.05-.07a.66.66 0 0 1 0-.07h.11a.57.57 0 0 0 0-.06v-.15a.48.48 0 0 0 0-.06l.45.07a.11.11 0 0 1 .06-.1.61.61 0 0 1 .09 0 .05.05 0 0 0 .06-.06.32.32 0 0 0 0-.11 1.18 1.18 0 0 0 0-.32.65.65 0 0 1 0-.09.33.33 0 0 0 0-.14.53.53 0 0 0 0-.07v-.3a.48.48 0 0 1 0-.11 1 1 0 0 0 0-.2v-.3a.63.63 0 0 0 0-.13.6.6 0 0 0 0-.13.08.08 0 0 0 0-.06v-.08a.79.79 0 0 1-.06-.14v-.18a.15.15 0 0 1 0-.07v-.08h-.08a.17.17 0 0 1 0-.11.66.66 0 0 1 .19.06s0-.05 0 0a.23.23 0 0 1 .06.07v.06h.17v-.2a.64.64 0 0 1 .19.06v-.1h.07a.48.48 0 0 0 0-.07v-.11a.52.52 0 0 1 0-.07v-.06h.11a.12.12 0 0 1 .09 0h.09V32a.66.66 0 0 0 0-.07zm.22-.17v.05a.24.24 0 0 0 .07.08.11.11 0 0 0 0-.07.25.25 0 0 0 0-.11zm.29-1.23v.15a.16.16 0 0 1 0 .08v-.17zm-5.37-9.12l.09.06.08.06h.09l.05.05.08.06h.06v-.07l-.05-.05-.03-.01-.11-.07h-.06v.05zm.06-.1l-.16-.18h-.07l.05.05.08.06zm-1.16-1v-.05h-.06.12zm.12.31l.11.11v.07l.18.1v-.06h-.06l-.09-.09-.05-.05zM148.7 17a.08.08 0 0 1-.06 0h-.42.47zm-3.24-.35h.33a.06.06 0 0 0 0-.05h-.26zm1.21 0a.18.18 0 0 0 .13 0h.27l.31.06h.65l-.23-.06a.05.05 0 0 0 0-.06h-.07l-.19-.05h-.31.1-.11a.48.48 0 0 1-.09 0h-.36v.07h-.21v.07a.18.18 0 0 0 .13.07zm-1.17-.8h-.77.21v.07l.54.08h.17l.38.06h.43V16h-.13.06a.14.14 0 0 1-.06-.05h-.77zm-.86-.11h.94v-.05h.09l-.36-.06-.06-.06h-1.04.42v.06zm-.11 0H144v.07h.55zm-.72-.45h-.27.38-.09zM131 19.49h-.14v-.08l-.39.07v.05c0 .05 0 0 0 0a1.13 1.13 0 0 1-.07.21h.28a.08.08 0 0 1 .06-.07h.18zm1.62-1.64h-.22a.28.28 0 0 1 0 .12.36.36 0 0 0-.16 0h-.12a.11.11 0 0 0-.08 0h-.24l-.08.05a.08.08 0 0 0-.06 0 .28.28 0 0 0 0 .09h.39a.06.06 0 0 1 .06 0h.12c.02 0 0 0 0 0l-.12.11h1.16v.36h-.07a.42.42 0 0 1 0-.08h-.32v-.31a.07.07 0 0 0 .06 0 .21.21 0 0 1 0-.11h.06l.13-.09h.21l.12-.08h.06c.06 0 0 0 0 0h.07a.35.35 0 0 0 .12-.08h.06a.08.08 0 0 0 .06 0h.78a.09.09 0 0 0 .09 0v-.72h.55a.09.09 0 0 0 .06 0h.74a.34.34 0 0 0 .09 0h.25c.07 0 .09-.05.15-.06h.38l.11-.07h.21-.68a.13.13 0 0 1-.07 0h-1.82l-.1.07h-.43L134 17h-.37a.09.09 0 0 1 0 .08h-.34a.16.16 0 0 1-.1.08.16.16 0 0 0-.08 0v.07h-.54a.11.11 0 0 0-.09.08h.27l-.05.06a.3.3 0 0 1-.17 0h.11zm5-.38h.45a.08.08 0 0 0 .06 0h-.41l-.15.07h.09v-.07zm-1.91-2.15h.51-.6zm-.71.08h-.21.21a.11.11 0 0 0 .07 0h.48a.06.06 0 0 1-.06 0H135zm-.18.22h-.24.33-.11zm-1 .1v.07h.33v.05h.19a.07.07 0 0 1 0-.07h.24l-.45.06h-.36zm-.83.15h.97s-.05 0 0 0a.14.14 0 0 1 .11 0h.17a.3.3 0 0 0 .15 0h.14-.34.21-1.54zm-1 .06H131a.11.11 0 0 0 0 .06.18.18 0 0 0 .11 0h.65-.19v.05h.36L132 16h.42-.14v-.07h-.53zM124 19.29l-.27.21h.12zm38 9.17l-.06-.14a.53.53 0 0 0 0 .12zm-44.7-.69l-.07.1-.08.13v-.07a.08.08 0 0 1 0-.07v-.18.06zm-.71 2.79h.08a.4.4 0 0 1 0-.16h.38a.35.35 0 0 1 0-.06s0 .06 0 0a.07.07 0 0 0 .06 0v-.06a.09.09 0 0 1 0-.07v-.48a.24.24 0 0 1 0-.07h.06v-.14h.06v-.24h-.05v.12a.17.17 0 0 1 0-.05v-.19h-.08v-.52h-.05c-.05 0 0 0 0 0a.09.09 0 0 1 0-.05v-.19a2.21 2.21 0 0 1 .07-.21l-.26.17v-.07a.09.09 0 0 1 0-.07v-.06l-.1.06v.35l-.06.05v.06a.92.92 0 0 1 0 .1v.32a.07.07 0 0 1 0-.07V29v.05l.12-.08v-.07.08a.52.52 0 0 1 0 .09.32.32 0 0 0 0 .08v.11a.29.29 0 0 1 0 .1v.06h-.06v.15l.07-.05a.1.1 0 0 1 0 .07.23.23 0 0 1 0 .07v.07a.22.22 0 0 0 0-.06h.05v.05a.08.08 0 0 1 0 .07.31.31 0 0 1-.06 0 .09.09 0 0 1 0 .07l-.06.06a.84.84 0 0 1 0 .1v.07zm.26-1.31a.31.31 0 0 0 .07-.13V29l-.06.05v.1a.48.48 0 0 0 0 .07.11.11 0 0 1 0 .1.24.24 0 0 1-.05.06l-.11.36a.07.07 0 0 0 .05 0 .26.26 0 0 1 0 .17v.07a.16.16 0 0 1 0 .12.18.18 0 0 1 0-.06v-.13l.2-.13a.52.52 0 0 1 0-.07v-.1a.16.16 0 0 1 0-.12.6.6 0 0 0 0-.1v-.12zM130.12 55a3.16 3.16 0 0 0-.16-.31.17.17 0 0 1 0-.17.13.13 0 0 0 0-.11v-.1s-.05-.09 0-.12a.14.14 0 0 1 0-.07 1.29 1.29 0 0 0 .13-.07.26.26 0 0 0 0-.11.14.14 0 0 1 0-.07 2.49 2.49 0 0 0-.11-.32.92.92 0 0 0 0-.26.14.14 0 0 1 0-.13.41.41 0 0 0-.16-.12l-.15-.11a.35.35 0 0 1-.15-.05.48.48 0 0 1 0 .13.15.15 0 0 1 0 .13.53.53 0 0 0-.12.08.34.34 0 0 1-.1.11.2.2 0 0 0-.12.08.49.49 0 0 0 0 .12v.12a.23.23 0 0 1-.14 0 .88.88 0 0 1-.06.24.16.16 0 0 1-.14 0h-.27a.48.48 0 0 0-.26 0h-.12a.21.21 0 0 0 0 .12.17.17 0 0 1 0 .11.4.4 0 0 0-.09.21.66.66 0 0 0 .05.12 2 2 0 0 0 .06.24.7.7 0 0 0 .12.13.48.48 0 0 0 0 .11v.11a.29.29 0 0 0-.13 0 .15.15 0 0 1 0 .1.1.1 0 0 0 0 .1 1.3 1.3 0 0 1 .06.23s-.08 0-.08.09v.05l.1.17.07.12v.11s0 .07.05.11a.39.39 0 0 0 0 .19h.38a.38.38 0 0 1 .1.11h.38a1 1 0 0 0 .26 0 .21.21 0 0 0 .07-.09v-.2a2.06 2.06 0 0 1-.07-.32v-.1a.32.32 0 0 1 .08-.1.28.28 0 0 0 .08-.1 1.27 1.27 0 0 0 0-.22 1.1 1.1 0 0 1 0-.23.22.22 0 0 1 .12-.06.37.37 0 0 0 .16-.06c0-.06.13 0 .12-.07zm-7-18.14c0-.07-.08-.08-.09-.14a1.21 1.21 0 0 0 0-.17.31.31 0 0 0 0-.15.45.45 0 0 0-.11-.12l-.09-.07h-.12a.41.41 0 0 0-.11-.11h-.06a.86.86 0 0 0-.3.18h-.06l-.8-.22a.89.89 0 0 1-.21.08.33.33 0 0 1-.16 0 .32.32 0 0 1-.1-.15.85.85 0 0 0-.2-.21.49.49 0 0 0-.34-.16c-.14 0-.15.09-.25.1a.19.19 0 0 1-.14 0v.48a4.08 4.08 0 0 1 0 .45h-.14a.14.14 0 0 0-.09 0h-.1a.3.3 0 0 1-.09-.15.34.34 0 0 0-.09-.13.12.12 0 0 0-.12 0h-.43a.17.17 0 0 0 0-.13.2.2 0 0 1 0-.15s-.06 0-.08-.05a.22.22 0 0 0-.08-.1.12.12 0 0 0-.08 0 .22.22 0 0 0-.16 0 .29.29 0 0 1-.16 0 .59.59 0 0 1-.15-.11.27.27 0 0 1-.13-.22v-.16a.54.54 0 0 1 0-.14.45.45 0 0 1 .09-.11.56.56 0 0 0 0-.12.34.34 0 0 0 0-.14l-.07-.06-.1-.09a.68.68 0 0 1 .07-.14h.16v-.23h-.08a.34.34 0 0 0-.14-.08.12.12 0 0 0-.08.05.08.08 0 0 0-.07 0c-.06 0-.1.09-.15.12a.08.08 0 0 1-.07 0 .79.79 0 0 0-.21 0 .2.2 0 0 0-.08.1.56.56 0 0 0-.08.12l-.06-.08a.18.18 0 0 0 0-.12.16.16 0 0 0-.12-.07 1.41 1.41 0 0 0-.2.19.06.06 0 0 1-.06 0 .62.62 0 0 0-.08.15 1.22 1.22 0 0 0-.29.07.13.13 0 0 1 0 .11 1.2 1.2 0 0 0 0 .14.33.33 0 0 1-.06.11h-.05a.14.14 0 0 0-.11 0 .18.18 0 0 1-.06.06H116a.45.45 0 0 1-.15 0 .1.1 0 0 0 0-.08v-.05a.42.42 0 0 1 0 .14.5.5 0 0 0 0 .12v.31c0 .07 0 0 0 0h-.08a2 2 0 0 1 0 .48h-.16a.68.68 0 0 1 0 .24.69.69 0 0 0 0 .24.12.12 0 0 1 0 .12.82.82 0 0 0 0 .27v.22a.2.2 0 0 0-.11 0 .89.89 0 0 1-.06.34.21.21 0 0 1 0 .12.88.88 0 0 0 0 .12.72.72 0 0 0 0 .12.5.5 0 0 1 0 .24v.15a.18.18 0 0 0 0 .12 1.19 1.19 0 0 1 0 .12 1.16 1.16 0 0 0 0 .13v.12a.06.06 0 0 0-.05 0v.68a.12.12 0 0 0 0 .1v.2a.08.08 0 0 1 .06 0 .24.24 0 0 0 0 .12v.99a1.15 1.15 0 0 1 0 .12.48.48 0 0 1 0 .1.55.55 0 0 0 0 .1.24.24 0 0 0 0 .12v.32a2.48 2.48 0 0 0 0 .25.09.09 0 0 0 0 .07v.12a.22.22 0 0 0 0 .07.46.46 0 0 0 0 .1v.07a.53.53 0 0 0 0 .22.17.17 0 0 1 0 .07.88.88 0 0 0 0 .34.82.82 0 0 0 0 .12.19.19 0 0 0 .06.09 1 1 0 0 0 .09.16.19.19 0 0 0 .09.06.32.32 0 0 1 0 .12.2.2 0 0 1 0 .12.77.77 0 0 0 0 .12v.13a.33.33 0 0 0 .05.14.82.82 0 0 0 .11.18.33.33 0 0 1 .06.09.08.08 0 0 0 .07 0v-.08a1 1 0 0 0 0-.12h.09l.06.06a.29.29 0 0 1 .13 0 .21.21 0 0 0 0 .13.23.23 0 0 0 .13.06.57.57 0 0 0 .08 0h.05a.35.35 0 0 0 0-.1v-.08a.07.07 0 0 1 0-.08h.12a1 1 0 0 1 .12.06 1.15 1.15 0 0 0 .06-.11.38.38 0 0 1 .16 0 .1.1 0 0 1 .11.07 1.08 1.08 0 0 0 0 .13l.06.12a.2.2 0 0 0 0 .13 1.35 1.35 0 0 0 0 .13.41.41 0 0 1 .08.1h.08l.62.16.05.38v.38a.63.63 0 0 1 0 .11.19.19 0 0 1 0 .13.21.21 0 0 0 0 .1 2.15 2.15 0 0 0 .05.39V47h-.07a.26.26 0 0 0 0 .11l.09.09a.4.4 0 0 1 .17.15 1.36 1.36 0 0 1 .06.24.8.8 0 0 0 .07.14.18.18 0 0 0 .08 0 .48.48 0 0 1 .09.09.37.37 0 0 0 0 .13c.06.12.13.19.2.31l.06.12c.05.1.11.19.15.27s.06.1.07.14 0 .16.06.27a2.58 2.58 0 0 0 .1.25c0 .06.07.09.09.13a.33.33 0 0 1 0 .12.72.72 0 0 0 0 .11 1 1 0 0 0 .1.25.3.3 0 0 0 .09.08.85.85 0 0 1 0 .18.93.93 0 0 0 0 .18.28.28 0 0 0 0 .1.62.62 0 0 1 0 .1.29.29 0 0 1-.05.06.37.37 0 0 0 0 .28 1.67 1.67 0 0 1 .06.21.21.21 0 0 0 0 .12l-.05.06a.26.26 0 0 0 0 .09 1 1 0 0 0 .08.22 1.43 1.43 0 0 0 .11.32l.11.14a.47.47 0 0 1 .1.1.19.19 0 0 0 0 .11.43.43 0 0 0 0 .1l.07.12.08.12a2.07 2.07 0 0 0 .23.23.13.13 0 0 0 0 .1l.82.22.05.11a.11.11 0 0 0 0 .11.21.21 0 0 1 .09.11l.2.5c0 .07.07.12.11.19a.77.77 0 0 1 0 .09 1.68 1.68 0 0 0 .17.23c.11.13.23.21.32.34a.37.37 0 0 0 0 .09l.21.07.07.1.13.2.13.13a.5.5 0 0 1 .11.1 1.25 1.25 0 0 0 .09.18l.07.1s.09.08.1.11 0 0-.06 0a.06.06 0 0 1 0 .06.68.68 0 0 1 0 .09.13.13 0 0 0 .09.05h.09v.07a.21.21 0 0 0 0 .09l.1.07.11.09.42.18a.82.82 0 0 0 .17 0h.16l.69.38a.17.17 0 0 1 0-.08h.18l.2.08h.08a.18.18 0 0 0 0-.05v-.08a.12.12 0 0 1 .07 0 .12.12 0 0 0 .08 0 .11.11 0 0 0 .07-.05s.07 0 .07-.05v-.15c0-.04 0 0 .07-.06a.36.36 0 0 0 .16-.09v-.09a.17.17 0 0 1 .08-.06s.07 0 .08-.06a.5.5 0 0 0 0-.22.37.37 0 0 0 0-.15.55.55 0 0 0-.12-.13l-.06-.11a.26.26 0 0 1 .09 0h.22a.19.19 0 0 0 .08-.07h.09a.07.07 0 0 1 0-.09.18.18 0 0 0 .09 0h.11a.18.18 0 0 0 0-.1 1.82 1.82 0 0 0-.14-.32l-.13-.24-.13-.23a.85.85 0 0 1-.19-.26c0-.1.07 0 .1-.08s0-.06.06-.1a.27.27 0 0 1 .1-.08h.07a.79.79 0 0 0 0-.1.21.21 0 0 0 .09-.1v-.1a.31.31 0 0 1 .21-.06h.24c.05 0 0-.06.11-.06a.53.53 0 0 0 .21-.11.27.27 0 0 0 .11-.21.75.75 0 0 0 0-.24v-.38a.36.36 0 0 0 0-.19.59.59 0 0 1-.09-.15c-.07-.38-.07-.38-.13-.76a1 1 0 0 1-.15-.13 4.37 4.37 0 0 1-.27-.48.89.89 0 0 0 0-.26 1.32 1.32 0 0 0 0-.12v-.15a.46.46 0 0 0-.08-.14c0-.05-.07-.1-.09-.15a.13.13 0 0 0 0-.06.83.83 0 0 1 0-.21v-.12a.52.52 0 0 1 .12-.08 1.35 1.35 0 0 0 .28-.38.57.57 0 0 1 0-.14.4.4 0 0 1 .09-.13.53.53 0 0 1 0-.14 1.53 1.53 0 0 1 .1-.28.51.51 0 0 1 .12-.1.53.53 0 0 0 .22-.22 1.22 1.22 0 0 1 .25-.23.81.81 0 0 0 .13-.13.43.43 0 0 1 .13-.13l.27-.16a.72.72 0 0 1 .06-.15.58.58 0 0 0 .13-.1.75.75 0 0 0 0-.14.73.73 0 0 0 .14 0l.14-.1.14-.11a.48.48 0 0 0 .14-.07.71.71 0 0 0 .11-.14c.07-.15 0-.31.08-.48a.3.3 0 0 1 .14-.11.52.52 0 0 1 .05-.18l.18-.11a.68.68 0 0 0 .11-.15 1.22 1.22 0 0 1 .1-.16 1 1 0 0 0 0-.32 2.41 2.41 0 0 1 0-.32 4.41 4.41 0 0 0 .09-.53v-.33h-.22a.6.6 0 0 0-.27 0 .41.41 0 0 0-.15.11 1 1 0 0 1-.52.22 1.45 1.45 0 0 1-.27-.11h-.74l-.22-.09-.09-.17c0-.06-.09-.1-.11-.16a.42.42 0 0 1 0-.17.67.67 0 0 0-.15-.09l-.08-.16v-.17a.48.48 0 0 0-.15-.12h-.14a.42.42 0 0 1-.15-.17 1.27 1.27 0 0 0-.11-.17c-.06-.05-.1 0-.14-.09a.83.83 0 0 0-.11-.16l-.14-.09a.27.27 0 0 1-.14 0 .52.52 0 0 1-.14-.13.62.62 0 0 1-.15-.32 1.32 1.32 0 0 1 0-.17 1 1 0 0 0 0-.32.57.57 0 0 0-.14-.12 1.94 1.94 0 0 1-.21-.34.45.45 0 0 1-.11-.16 1.5 1.5 0 0 1 0-.15v-.16a1.05 1.05 0 0 0 0-.32.62.62 0 0 0-.1-.17 2.22 2.22 0 0 0-.14-.32.83.83 0 0 0-.07-.16 1.54 1.54 0 0 0-.13-.09.82.82 0 0 1-.07-.16 1 1 0 0 1 0-.15v-.52a.45.45 0 0 0-.1-.15c-.06-.14-.18-.19-.22-.32a1.09 1.09 0 0 1-.06-.16v-.33a.92.92 0 0 0-.12-.31 1 1 0 0 0-.09-.17c0-.05-.05-.1-.09-.15l-.12-.11c-.17.05-.21-.2-.24-.25z" transform="translate(0 -.68)"/><path class="cls-4" d="M147.48 14.28q.11.57.21 1.14a25.07 25.07 0 0 0-21.85 2.51h.07l.13-.08h.26a.45.45 0 0 0 .11-.06h.18-.23l-.1.07h-.06l-.2.14h-.12l-.08.06h-.06l-.11.05h-.29l-.21.1-.31.21.08-.06h.28v.14l.28-.12v.07l.11-.05h.13l-.11.06-.25.11-.34.43-.16.11h-.09a.44.44 0 0 1 .11-.1v-.06h-.17a.26.26 0 0 1 .07-.07l-.3.14-.12.09h-.07l-.09.13h-.15l-.06.05v.07l-.12.09h-.32a25 25 0 0 0-4.77 33.36l-1.16.09a26 26 0 0 1-1.91-3.49l-.21-.48v-.11l-.19-.48-.06-.14-.23-.2-.06-.16-.15-.42-.07-.19-.13-.41-.07-.22-.11-.38-.08-.22-.09-.33-.08-.31-.07-.3-.09-.37-.06-.26-.08-.43v-.2l-.09-.48v-.16l-.08-.48v-.12l-.06-.48v-.17a26.16 26.16 0 0 1 .54-8.92l.07-.3.09-.33v-.22a25.83 25.83 0 0 1 1-2.91l.07-.23v-.1l.21-.48.06-.13.21-.44.07-.14.21-.42.08-.15.21-.4.09-.16.21-.39.1-.17.21-.36.11-.19.21-.34.12-.19.21-.32.13-.2.22-.32.14-.2.22-.31.1-.21.22-.3.24-.31.16-.2.05-.07.11-.12.11-.12a26.06 26.06 0 0 1 28.07-7.98zm.37 2.34h-.08a.05.05 0 0 0 0-.06h-.07l-.19-.05h-.22.1-.11a.48.48 0 0 1-.09 0h-.36v.07h-.21v.07a.18.18 0 0 0 .13.07.18.18 0 0 0 .13 0h.19l.31.06h.48v-.16zm0 .3h-.65V17h-.2.07l-.58-.11V17h-2.1a.07.07 0 0 1-.08 0h-1.01a.05.05 0 0 0-.05 0h-.38a.2.2 0 0 0 .08.08h.28v.07H141a.26.26 0 0 0-.13 0h.2v.13a.44.44 0 0 0 .17 0h.27a.09.09 0 0 1 .06 0 .11.11 0 0 1 .08 0v.08s-.07.06-.16.05h-.95a.31.31 0 0 1-.15 0h-.19a.06.06 0 0 0-.07 0h-.09a.47.47 0 0 0-.2 0c-.07 0 0 0 0 0h.34-.21a.29.29 0 0 0-.06 0h-.29a.19.19 0 0 0 .17.09h.21a.77.77 0 0 1 .21.05.1.1 0 0 1 .06 0h.14a.14.14 0 0 0-.06-.06h-.15a.41.41 0 0 1-.08 0H140a.24.24 0 0 1-.08 0h-.54v-.2a.07.07 0 0 0 .06 0v.37h-.09l-.07-.08h-.13v.29h-.3v.1h-.15a.08.08 0 0 0-.08.09.22.22 0 0 0 .15.11l.23.04v.17a.1.1 0 0 0-.08.06v.1a.52.52 0 0 0 .06.09h.56a.15.15 0 0 1 .08 0h.14l.14.06h.14s0 .06.08.09l.08.22h.08a.1.1 0 0 1 .06 0 .17.17 0 0 1 0 .09h-.14a.1.1 0 0 0 .08 0h.08a.06.06 0 0 0 .06 0h.29-.58a.14.14 0 0 1 0-.12v.12A.15.15 0 0 0 140 19h-.96a.35.35 0 0 1 .06.11.27.27 0 0 1 0 .12.26.26 0 0 1-.08 0h-.24a.26.26 0 0 0 0 .12h-.13l-.23.09a.48.48 0 0 0-.15.06l-.05.05h-1.01l.07-.05a.06.06 0 0 1 .05-.05h.58a.29.29 0 0 0 .08 0h.08a.09.09 0 0 0 .08 0 .23.23 0 0 1 .07-.1h.08a.48.48 0 0 0 .13-.09.6.6 0 0 0 .08 0h.08v-.06a1 1 0 0 1 .06-.1v-.2h-.32v-.11a.24.24 0 0 1 0-.11v-.1a.15.15 0 0 1 0-.09.29.29 0 0 0 0-.13.2.2 0 0 0-.07-.08.15.15 0 0 0 0-.08 1 1 0 0 0 0-.24h.21a.86.86 0 0 1 0-.23h-.17a.11.11 0 0 1-.07 0h-1.02a.21.21 0 0 0 0 .11.24.24 0 0 1-.08.08h-.06l-.14.09a.09.09 0 0 1 0 .08v.05h-.35v.11a.09.09 0 0 0 .06 0 .3.3 0 0 1 .11.07.1.1 0 0 1 0 .08.1.1 0 0 1 0 .09.1.1 0 0 1-.08 0h-.08v.15h.28a.17.17 0 0 0 .09 0h.06l.13.07h.06v.2a.16.16 0 0 1-.08 0h-.43a.12.12 0 0 1-.08-.15h-.22a.5.5 0 0 1-.21 0h-.49v-.05h-1.13a.39.39 0 0 1-.14 0h-.67a.07.07 0 0 0-.08 0 .07.07 0 0 0 0 .06h.07a.05.05 0 0 1 .05 0 .05.05 0 0 1 0 .05h.34v.1h.29a.26.26 0 0 1-.12.09h-.21v.05a.18.18 0 0 0-.08 0h-.09a.27.27 0 0 1 0-.1v-.09h-.25v.05a.47.47 0 0 1-.14 0h-.3l-.07.05h-.5a.27.27 0 0 0 0 .11h-.26c-.05 0 0 0 0 0h-.07a.35.35 0 0 1 0-.05l.1-.1h-.24a.26.26 0 0 0 0 .05h-.28a.18.18 0 0 0-.07.06l-.13.06h-.11a.73.73 0 0 0-.21 0h-.06v.06h-.4l-.09.05-.14.1h-.09l-.25.05-.09.06s.06 0 0 0a.08.08 0 0 1 0 .07l-.15.07a.16.16 0 0 0-.07 0h-.21a.61.61 0 0 0-.11.06h-.08a.06.06 0 0 1-.06 0 .1.1 0 0 1 0-.06.29.29 0 0 1 0-.11l.35-.07a.52.52 0 0 0 0-.15.06.06 0 0 1-.06 0 1.06 1.06 0 0 0-.14.05h-.2l-.23.21H129a.19.19 0 0 0 0 .1h.17l-.09.28v.05h-.07v.05H129s.06 0 0 0a.07.07 0 0 0-.07 0 .2.2 0 0 1 0 .14h-.26v-.05h-.15a.26.26 0 0 1-.07 0h-.26v.11h-.41v.05h-.19a.58.58 0 0 0 0 .1h.11a.06.06 0 0 1 0 .08.07.07 0 0 1 0 .07h-.79a.06.06 0 0 1 0-.06h-.06l-.06.06a.11.11 0 0 1-.07 0 .13.13 0 0 0-.08.08.21.21 0 0 0 0 .06h.05a.19.19 0 0 1 0 .05h.07a.93.93 0 0 1 .13 0 .19.19 0 0 1 .11 0 .34.34 0 0 1-.06.06l-.31.08a.05.05 0 0 1 0 .05h-.11a.33.33 0 0 0-.15 0h-.07a.06.06 0 0 1-.07-.06.76.76 0 0 0 0-.15h-.18a.89.89 0 0 1 .06-.17 1.66 1.66 0 0 1 .09-.21.12.12 0 0 0 0-.09.35.35 0 0 0-.17 0c-.07 0 0 0 0 0v-.07h-.2v-.06h.18a.12.12 0 0 0 .1 0 1.08 1.08 0 0 0 .2-.06c.07 0 0 0 0 0h.1l.4-.11h.62a.52.52 0 0 0 .13-.07h.18l.09-.06h.14v-.05a.21.21 0 0 0 0-.1.33.33 0 0 0 0-.13.31.31 0 0 0 0-.07h-.36a.11.11 0 0 1-.1 0h-.89a.23.23 0 0 1-.06-.05h-.16a.08.08 0 0 1 0 .07h-.18v-.05a.3.3 0 0 0 .06-.08h-.1v-.05l-.16.05h-.06a.28.28 0 0 1-.07.06h-.11l-.13.06h-.16.11v-.09.88h-.3a.52.52 0 0 0-.05.12l-.13.05a.18.18 0 0 1 0-.08v-.05h.05l-.34.13a.15.15 0 0 1-.05.12c-.05.06 0 0 0 0h-.05v-.06h.07-.1a1.62 1.62 0 0 0-.1.21l-.16.06.05-.12h.1a.55.55 0 0 0 .05-.12h-.05l-.13.1h-.14l-.07.07a.29.29 0 0 1-.08.09l-.08.05h-.05v-.05h.06l-.16.07-.15.08-.08.05h-.06.18V21h-.09a.29.29 0 0 0-.1 0h-.19l-.12.28v.05h-.06a.56.56 0 0 1 0-.09h-.14a.21.21 0 0 0 0 .07v.09a.6.6 0 0 1-.07.1h-.05l-.08.06a.16.16 0 0 1-.07 0h-.06a.1.1 0 0 1 0 .06h-.09v.13h-.09l.08-.13-.08.06-.05.11h-.06l-.11.09a.12.12 0 0 0 0 .06h-.15l-.07.07-.06.07.09-.05a.21.21 0 0 0 0-.06h.06a.1.1 0 0 0 .05 0v-.06h.05a.23.23 0 0 1 .11-.06l.11-.05v.06h-.12v.21a.15.15 0 0 0-.11.06s-.05.08-.09.11h-.15l-.05.05v.1l-.06.07v.05a.4.4 0 0 0 0 .09v.06l-.05.05-.1.08a.24.24 0 0 0 0 .06l-.05.05h-.06l-.05.05a.26.26 0 0 1 0 .07h.07v.06h-.05v.05h-.06l-.06.07v.16a.18.18 0 0 1-.07.07h-.15v.17l-.12.09-.08.07v.1c0-.01 0 0 0 0l-.06.08v.05a.12.12 0 0 0 0 .06.1.1 0 0 0 0 .06c0 .06 0 0 0 0v.22a.25.25 0 0 1 0 .09.09.09 0 0 1 0 .06v.1h.08v.11a.1.1 0 0 1 0 .07v.12l.13-.06a.9.9 0 0 1-.05.13v.2h.07l.08-.06a.31.31 0 0 0 .1-.08.06.06 0 0 1 0-.06v-.11l.06-.08.08-.11.05-.08.05-.05v-.11h.05v.09a.64.64 0 0 1 0 .11v.06a.21.21 0 0 0-.06.07.09.09 0 0 0 0 .07v.07a.52.52 0 0 0 0 .09v1.99l-.06.1v.07l.29-.11v-.09l.05-.08.06-.07h.2a.37.37 0 0 1 .05-.07.19.19 0 0 1 .1 0l.05-.18.16-.05a.09.09 0 0 1 0-.06.16.16 0 0 0 0-.08h-.08a.16.16 0 0 1 0-.07l.07-.11L121 26v-.11a.49.49 0 0 1 .05-.13v-.06h.05l.06-.07.06-.07v-.06a.1.1 0 0 1 0-.07v-.05l.06-.07V25h-.17a.77.77 0 0 0 .05-.16h.24l.14-.42h.05v-.06l.06-.07a.19.19 0 0 0 0-.06.67.67 0 0 1 .15-.23v-.06h.05l.11-.09.06-.07h.05a.06.06 0 0 1 0-.06h.16v-.05l.07-.06v-.05h.12a.16.16 0 0 0 .05-.08v-.38a.63.63 0 0 1 .1-.16v-.05l.07-.06.06-.07.06-.1v-.06a.16.16 0 0 1 .09 0h.1a.09.09 0 0 1 0 .07h.06v-.05h.06v.14l-.16.06a.71.71 0 0 1 0 .14l-.08.11-.07.06-.08.05h-.25v.06l-.06.07a.11.11 0 0 1-.06 0l-.06.07a.07.07 0 0 1 0 .06h-.05a.4.4 0 0 0-.12.13.61.61 0 0 0 0 .16.24.24 0 0 1 0 .08.43.43 0 0 0-.07.09.41.41 0 0 1 0 .17v.21h.11a.1.1 0 0 1 .08 0v.32h.1a.09.09 0 0 0 .1 0 .14.14 0 0 0 .05 0 1 1 0 0 1 .2-.15.2.2 0 0 1 .12 0h.18a.08.08 0 0 1 0-.06h.05l.41-.12a.36.36 0 0 0 .07-.06h.09v.05l.26-.07a.1.1 0 0 1-.08.08h-.3l-.06.06-.06.06-.06.06-.05.07a.07.07 0 0 1 0 .06.29.29 0 0 0-.05.07.12.12 0 0 0-.06 0h-.16c-.07 0-.09.06-.14.08h-.21l-.07.06h-.2a.31.31 0 0 1-.07.08.15.15 0 0 1 0 .06h-.24a.08.08 0 0 1 0 .06h-.09l-.18.11h-.05v.05a.11.11 0 0 0 .05.07h.23a.48.48 0 0 0 .11-.14.14.14 0 0 1 .08-.08h.11v.12a.07.07 0 0 1 0 .06l-.16.12a.05.05 0 0 0-.05 0 .15.15 0 0 0 0 .07.59.59 0 0 1 0 .11h-.21a.11.11 0 0 1 0-.06.29.29 0 0 1 0-.07h-.09l-.11.14-.06.06a.05.05 0 0 0-.05 0 .48.48 0 0 0 0 .07v.08l-.05.07s-.05.07-.06.1a.27.27 0 0 0 0 .1v.48a.93.93 0 0 0-.07.09v.16h-.33a.13.13 0 0 0-.07.06.13.13 0 0 0 0 .05.23.23 0 0 0 0 .06.4.4 0 0 0 0 .09v.06l.08-.02v-.06a.16.16 0 0 1-.05 0l-.12.11a.34.34 0 0 1-.06.07h-.05a.1.1 0 0 1 0 .07.36.36 0 0 1-.14.07h-.08l-.07.07h-.17a.35.35 0 0 1 0-.19h-.13a.06.06 0 0 1 0 .06h-.08a.44.44 0 0 0-.09.05v.16h-.14a.43.43 0 0 1 0-.12v.05h-.08v-.11a.27.27 0 0 1 0-.06l.14-.05h.21a.56.56 0 0 1 .05-.13.36.36 0 0 0 0-.12v-.11l.06-.1a.44.44 0 0 1 0-.1h-.13a.11.11 0 0 1-.07 0v.05a.08.08 0 0 1 0 .06s0 .06-.06.07a.58.58 0 0 1 0-.11.09.09 0 0 1 0-.05v-.15a.45.45 0 0 0-.09.06v-.09l.07-.12v-.07.2a.16.16 0 0 0-.06.07.91.91 0 0 1 0 .11.36.36 0 0 1-.09.11.15.15 0 0 0-.06.08v.08a.37.37 0 0 0-.1.16.53.53 0 0 0 0 .12v.08a.08.08 0 0 0 0 .05.64.64 0 0 1 0 .09v.15a.22.22 0 0 1 0 .1V28h-.35a.07.07 0 0 0-.07 0v.06a.36.36 0 0 0-.08.06v.13a.52.52 0 0 1-.1.13H119v.1h.05v.19a.07.07 0 0 0-.05 0 .15.15 0 0 0 0 .06l-1 .47a.07.07 0 0 1 0 .06v.06h-.1l-.09.35a.28.28 0 0 0-.11.06v.19h-.16v.43a.5.5 0 0 0 0 .07l-.1.07h-.09v-.15l-.07.08a.27.27 0 0 0-.06.08.42.42 0 0 0 0 .07v.1a.09.09 0 0 1 .06 0v.14l-.28.39v.63a.79.79 0 0 1 0 .1.82.82 0 0 1-.1.17 1.14 1.14 0 0 1-.1.12h-.17v.06l-.21.09a.05.05 0 0 0-.06 0s0-.05 0 0v.13h-.11v.2a.36.36 0 0 1 0 .07v.1a1.38 1.38 0 0 0 0 .14.53.53 0 0 0 0 .1v.44a.45.45 0 0 1 0 .07v.07a.61.61 0 0 0 0 .16v.17a.19.19 0 0 1 0 .08v.17a.84.84 0 0 0 0 .1v.14h.06l.06-.06v.08l.06-.06v.18a.06.06 0 0 0 .05 0 .1.1 0 0 1 0-.07.31.31 0 0 0 .06-.09v-.07a.32.32 0 0 0 .06-.06h.05l.05-.13a.48.48 0 0 1 .1-.15l.06-.06h.14a.26.26 0 0 0 .06 0 .58.58 0 0 1 0-.21c0-.1 0 0 0 0v-.1a.65.65 0 0 1 0-.09v-.07a.34.34 0 0 1 .06-.15v-.26a.42.42 0 0 1 0-.07.06.06 0 0 0 .06 0 .26.26 0 0 1 0-.06v-.06h.06v-.06c0-.06 0 0 0 0h.09a.05.05 0 0 0 .06 0v-.18a.62.62 0 0 0 0-.07v-.29a.84.84 0 0 1 0-.11v-.07a.19.19 0 0 1 .07-.07.07.07 0 0 0 .05 0h.07l.42.02a.1.1 0 0 0 .08 0 .72.72 0 0 1 0-.11.37.37 0 0 1 0-.07v-.06a.08.08 0 0 1 0-.06h.14a.11.11 0 0 0 0-.06v-.12a.21.21 0 0 1 0-.08.05.05 0 0 1 .06 0 .22.22 0 0 1 0 .09.66.66 0 0 1 0 .18V32a.09.09 0 0 0 0 .06v.3a.06.06 0 0 0 0 .06.29.29 0 0 1 .07 0h.09a.48.48 0 0 1 0 .07.31.31 0 0 0 .08.16.26.26 0 0 0 0 .14c0 .05.07 0 .08.07a.22.22 0 0 0 0 .07.57.57 0 0 1 0 .07v.15a1.1 1.1 0 0 1 0 .12.34.34 0 0 0-.22.11.09.09 0 0 1 0 .08h.72a1.41 1.41 0 0 0-.28.06v.09a.12.12 0 0 1 .08 0 .16.16 0 0 0 0 .05.16.16 0 0 1 0 .07v.05a.07.07 0 0 0 .08 0h.25v-.1h.06l.1-.11a.44.44 0 0 1 0-.07.64.64 0 0 0 0-.08.38.38 0 0 0 0-.2.14.14 0 0 1 .05-.07l.36-.15v-.16a.09.09 0 0 0-.06 0h-.13v-.16h.18a.07.07 0 0 1 .08 0 .07.07 0 0 0 0 .08s0-.05.05 0a.61.61 0 0 1 0-.2v-.16h-.11v-.08c0-.08 0 0 0 0a.61.61 0 0 0 0-.08h-.05a.12.12 0 0 1 0-.07v-.1h-.17v-.39a.15.15 0 0 1-.11 0v-.07c0-.07 0 0 0 0a1.3 1.3 0 0 1 0-.15H119v-.35a.54.54 0 0 1 .05-.07.48.48 0 0 0 0-.07v-.06a.23.23 0 0 1 0-.1h.06a.06.06 0 0 1 .06 0v.07a.52.52 0 0 0 0 .07h.08V31a.41.41 0 0 1 0 .08v.14l.07.09v.05a.16.16 0 0 0 .09.05h.08v.07a.15.15 0 0 0 .08.05.74.74 0 0 0 .11.15.14.14 0 0 0 .09 0v.39a.53.53 0 0 1 0 .08.4.4 0 0 0 0 .08.61.61 0 0 0 0 .1.27.27 0 0 0 0 .11.39.39 0 0 1 .07.11 1 1 0 0 0 0 .14.26.26 0 0 0 0 .12v.07h.19v.28h-.12v-.04a.12.12 0 0 0-.05 0 .07.07 0 0 0 0 .06.08.08 0 0 0 0 .07.31.31 0 0 0 .06.12.18.18 0 0 0 0 .07l.06-.07a.1.1 0 0 0 0-.08h.05a.43.43 0 0 0 0 .06v.06a.09.09 0 0 1 .09.09.22.22 0 0 1 0 .15.43.43 0 0 0 0 .08l.06.06h.16a.07.07 0 0 0 .05 0 .16.16 0 0 1 0-.07.11.11 0 0 0 .06-.06.18.18 0 0 0 0-.06v-.12a.15.15 0 0 1 0-.09h.05a.17.17 0 0 0 0 .07h.17v-.34h.17a.3.3 0 0 1 0-.09h-.05c-.05 0 0-.07 0-.07h-.07a.59.59 0 0 1 0 .14v.07c0 .07 0 0-.06 0h-.05a.56.56 0 0 0 0-.09v-.36h-.1a.1.1 0 0 1 0-.06v-.06a.56.56 0 0 1 0-.06v-.08a.31.31 0 0 0 0-.07v.06h.21l.06-.06v-.14a.11.11 0 0 1 .05-.06h.24a.06.06 0 0 0 0 .06h.06c.06 0 0 0 0 0a.33.33 0 0 1 0 .06v.08h.05v.07h-.06a.11.11 0 0 0-.06.08.23.23 0 0 0 0 .17.22.22 0 0 1 .11.05.3.3 0 0 1 0 .2v.26a.25.25 0 0 0 0 .06.06.06 0 0 0 0 .07.48.48 0 0 1 0 .07.2.2 0 0 0 0 .05V34a.56.56 0 0 0 0 .1v.08s.05-.06.06-.1V34a.87.87 0 0 0 0-.11v-.21l.06.07h.26v-.02a.34.34 0 0 1 0-.07.07.07 0 0 1 .08 0h.09a.15.15 0 0 0 0 .07.16.16 0 0 0 .06.05h.49a1 1 0 0 1 0-.13v-.1a.69.69 0 0 1 0-.08h.27a.08.08 0 0 0 0 .08h.17v.07a.54.54 0 0 1 0 .08.55.55 0 0 1 0 .13.09.09 0 0 1 0 .06v.1a.37.37 0 0 1 0 .16.09.09 0 0 0 0 .08v.12a.07.07 0 0 0 0 .06.15.15 0 0 1 0 .07.16.16 0 0 1 0 .06.27.27 0 0 0 0 .08v.06a.4.4 0 0 0-.06.1v.07a.1.1 0 0 1-.08.06.43.43 0 0 0 0 .08.89.89 0 0 1-.07.2.14.14 0 0 1 0 .11.24.24 0 0 1-.06.1h-.36a.21.21 0 0 0-.07-.06h-.19.07l.1.05h.16v.08a.19.19 0 0 0 0 .07.14.14 0 0 1 0 .07v.37a.57.57 0 0 1 .11.13.08.08 0 0 0 0 .07.36.36 0 0 0 0 .09v.16a.21.21 0 0 0 .06.09h.2a.13.13 0 0 0 .06-.06V37l.07-.09v.08a1.43 1.43 0 0 0 .14.23.23.23 0 0 0 0 .08.16.16 0 0 0 .06.07.48.48 0 0 1 .07 0 .17.17 0 0 1 0 .08v.18a.48.48 0 0 1 0 .08.33.33 0 0 0 0 .08.86.86 0 0 0 .11.17s.05 0 .07.09a.32.32 0 0 1 0 .13v.11a.53.53 0 0 0 0 .27s.06 0 .1.06h.14l.07.08v.09a.09.09 0 0 0 0 .07.52.52 0 0 1 .13.19c0 .07 0 .11.07.17l.07.17a.63.63 0 0 1 .07.25.55.55 0 0 1 0 .09v.09a.55.55 0 0 0 0 .09.26.26 0 0 0 0 .15l.07.06a.13.13 0 0 1 .07 0 .19.19 0 0 0 .07.08l.14.15a.2.2 0 0 1 .07.06v.08a.21.21 0 0 1 .07.09 1 1 0 0 1 .07.18l.06.1.09.08.15.26c.06.1.15.15.22.24v.09a.4.4 0 0 0 .06.11.23.23 0 0 1 0 .09V42a.48.48 0 0 0 0 .08.6.6 0 0 0 0 .09.48.48 0 0 1 .1.17 5.71 5.71 0 0 0 0 .7.35.35 0 0 0 .19.21.32.32 0 0 0 .15.13h.15a.61.61 0 0 0 .21 0 .14.14 0 0 0 .07-.08.78.78 0 0 1 .09-.15.39.39 0 0 1 .14-.1h.56a.31.31 0 0 1 .08.06h.08a1.43 1.43 0 0 0 .07-.17.2.2 0 0 1 .06-.07.2.2 0 0 1 .09-.06.26.26 0 0 1 .07-.09 2.09 2.09 0 0 0 .23 0 .15.15 0 0 0 .08-.06h.15a.35.35 0 0 0 .08-.05h.23a.13.13 0 0 0 .08-.08l.08-.09a.23.23 0 0 1 .08-.09h.32v-.26A.14.14 0 0 1 130 42a.08.08 0 0 1 .08 0l.08-.06h.89a.74.74 0 0 1 0-.13v-.1a.57.57 0 0 1 0-.09.83.83 0 0 1 .1-.16h.41v-.08a.22.22 0 0 1 0-.08.41.41 0 0 1 .06-.17.16.16 0 0 1 .08-.08h.3a.24.24 0 0 1 0-.16v-.08a.19.19 0 0 0 0-.09.29.29 0 0 1 .06-.08.26.26 0 0 1 0-.09.16.16 0 0 1 .12-.07.25.25 0 0 1 .06.09.13.13 0 0 0 .09 0 2.32 2.32 0 0 1 0-.26 2.23 2.23 0 0 1 .06-.28.79.79 0 0 1 0-.11v-.09a.12.12 0 0 1 .09 0h.09l.17-.07a.91.91 0 0 0 0-.2.15.15 0 0 0-.09-.09h.05-.09a.07.07 0 0 1-.09 0 .15.15 0 0 1 0-.09.65.65 0 0 1 0-.11.29.29 0 0 0 0-.09.14.14 0 0 0-.12-.18h-.25a.36.36 0 0 1-.09 0v-.09a.7.7 0 0 0 .06-.18.19.19 0 0 0 0-.09.15.15 0 0 0-.08 0 .11.11 0 0 0-.09 0h-.16a.62.62 0 0 1 0 .2.27.27 0 0 1-.12.16 1 1 0 0 0 0-.2.18.18 0 0 1 0-.09.73.73 0 0 1-.08 0 .31.31 0 0 0-.06-.09V38a.23.23 0 0 0-.06-.09l-.08-.07a.9.9 0 0 0 0 .09h-.16a.28.28 0 0 0-.11.18 1.35 1.35 0 0 0 0 .26v.23c0 .06-.11 0-.16 0h-.36a.31.31 0 0 1-.1 0h-.2a.28.28 0 0 0-.08.06h-.08a.26.26 0 0 0-.08.08.2.2 0 0 1-.08.1.22.22 0 0 1-.16-.08.17.17 0 0 1-.08-.08.22.22 0 0 1-.08-.09.48.48 0 0 1 0-.09v-.11a.1.1 0 0 1 .08 0 .27.27 0 0 1 .2-.09.38.38 0 0 1 .12.07h.26a.27.27 0 0 0 .08 0v-.09a.08.08 0 0 0-.08-.06h-.08a.31.31 0 0 0-.16 0h-.25c-.08 0-.11-.08-.2-.08h-.41v-.46a.35.35 0 0 0-.06-.08h-.08s0-.08-.08-.09h-.16a.24.24 0 0 1-.08-.05.18.18 0 0 1-.11 0 .62.62 0 0 1 0-.11v-.2a.54.54 0 0 0-.1-.17.6.6 0 0 0-.08-.08.29.29 0 0 1 0-.09.53.53 0 0 1 0-.08v-.11a1.16 1.16 0 0 1 0-.13 1.17 1.17 0 0 1 0-.14.18.18 0 0 1 0-.08.16.16 0 0 1 .08-.1h.11a.59.59 0 0 1 .19 0 .35.35 0 0 1 .21.21l.08.06.13.17a.41.41 0 0 1 .08.08s.07.17.11.26a.17.17 0 0 0 .08.08c.08.06.15.08.23.13a1.23 1.23 0 0 1 .16.14l.16.13a.62.62 0 0 0 .16.11h.75a.72.72 0 0 0 .08 0h.16a.2.2 0 0 0 .08 0h.24l.08.07a.28.28 0 0 1 .12.15v.09a.59.59 0 0 0 0 .09.2.2 0 0 0 0 .09h.09L132 38h.43a.13.13 0 0 0 .09 0h.11a.17.17 0 0 1 .08.07.29.29 0 0 0 0 .09h.09a.23.23 0 0 0 .11 0h.43c.08 0 .11.07.18.07h.75l.54-.09h.48a.33.33 0 0 1 .18.13l.09.07a.13.13 0 0 1 .09.07.64.64 0 0 0 .11.18l.09.07h.15l.09.07a.24.24 0 0 1 0 .09.6.6 0 0 1 0 .17.31.31 0 0 1 .15 0 .16.16 0 0 0 0 .09.55.55 0 0 1 .07.09.13.13 0 0 0 .09 0h.26a.24.24 0 0 1 .09 0h.09l.2.09h-.45a.36.36 0 0 0-.09 0v.09a.09.09 0 0 0 0 .09.12.12 0 0 0 .09 0h.09a.36.36 0 0 1 .07.09l.07.09a.69.69 0 0 0 .18.16l.11.06a.33.33 0 0 0 .09.09h.17a.2.2 0 0 0 .09-.07s0-.07.07-.09a.59.59 0 0 0 .18 0 .29.29 0 0 0 .07-.11.12.12 0 0 1 .09-.09.33.33 0 0 1 .22.09.14.14 0 0 1 0 .09.37.37 0 0 1 0 .22 1 1 0 0 0 0 .18 1 1 0 0 0 .09.2.65.65 0 0 1 0 .09v.48a2.25 2.25 0 0 0 0 .31v.09s.05.11.07.18a.48.48 0 0 1 0 .09V42a.25.25 0 0 0 .13.18l.07.09s.06 0 .09.09a.35.35 0 0 1 .07.09.29.29 0 0 1 0 .09 1.43 1.43 0 0 0 0 .2.61.61 0 0 0 0 .09 32.61 32.61 0 0 0 8.9-26.3zM126.29 51.4l-.14-.26a.89.89 0 0 0 0-.26 1.32 1.32 0 0 0 0-.12v-.15a.46.46 0 0 0-.08-.14c0-.05-.07-.1-.09-.15a.13.13 0 0 0 0-.06.83.83 0 0 1 0-.21v-.14a.52.52 0 0 1 .12-.08 1.35 1.35 0 0 0 .28-.38.57.57 0 0 1 0-.14.4.4 0 0 1 .09-.13.53.53 0 0 1 0-.14 1.53 1.53 0 0 1 .1-.28.51.51 0 0 1 .12-.1.53.53 0 0 0 .22-.22 1.22 1.22 0 0 1 .25-.23.81.81 0 0 0 .13-.13.43.43 0 0 1 .13-.13l.27-.16a.72.72 0 0 1 .06-.15.58.58 0 0 0 .13-.1.75.75 0 0 0 0-.14.73.73 0 0 0 .14 0l.14-.1.14-.11a.48.48 0 0 0 .14-.07.71.71 0 0 0 .11-.14c.07-.15 0-.31.08-.48a.3.3 0 0 1 .14-.11.52.52 0 0 1 .14-.15l.18-.11a.68.68 0 0 0 .11-.15 1.22 1.22 0 0 1 .1-.16 1 1 0 0 0 0-.32 2.41 2.41 0 0 1 0-.32 4.41 4.41 0 0 0 .09-.53v-.36h-.22a.6.6 0 0 0-.27 0 .41.41 0 0 0-.15.11 1 1 0 0 1-.52.22 1.45 1.45 0 0 1-.27-.11h-.74l-.22-.1-.08-.17c0-.06-.09-.1-.11-.16a.42.42 0 0 1 0-.17.67.67 0 0 0-.15-.09l-.08-.16v-.16a.48.48 0 0 0-.15-.12h-.14a.42.42 0 0 1-.15-.17A1.27 1.27 0 0 0 126 43c-.06-.05-.1 0-.14-.09a.83.83 0 0 0-.11-.16l-.14-.09a.27.27 0 0 1-.14 0 .52.52 0 0 1-.14-.13.62.62 0 0 1-.15-.32 1.32 1.32 0 0 1 0-.17 1 1 0 0 0 0-.32.57.57 0 0 0-.14-.12 1.94 1.94 0 0 1-.21-.34.45.45 0 0 1-.11-.16 1.5 1.5 0 0 1 0-.15v-.16a1.05 1.05 0 0 0 0-.32.62.62 0 0 0-.1-.17 2.22 2.22 0 0 0-.14-.32.83.83 0 0 0-.07-.16 1.54 1.54 0 0 0-.13-.09.82.82 0 0 1-.07-.16 1 1 0 0 1 0-.15v-.48a.45.45 0 0 0-.1-.15c-.06-.14-.18-.19-.22-.32a1.09 1.09 0 0 1-.06-.16v-.33a.92.92 0 0 0-.12-.31 1 1 0 0 0-.09-.17c0-.05-.05-.1-.09-.15l-.12-.11c0-.05-.09-.31-.11-.36 0-.07-.08-.08-.09-.14a1.21 1.21 0 0 0 0-.17.31.31 0 0 0 0-.15.45.45 0 0 0-.11-.12l-.1-.07h-.12a.41.41 0 0 0-.11-.11h-.06a.86.86 0 0 0-.3.18h-.06l-.8-.22a.89.89 0 0 1-.21.08.33.33 0 0 1-.16 0 .32.32 0 0 1-.1-.15.85.85 0 0 0-.2-.21.49.49 0 0 0-.34-.16c-.14 0-.15.09-.25.1a.19.19 0 0 1-.14 0v.48a4.08 4.08 0 0 1 0 .45h-.14a.14.14 0 0 0-.09 0h-.1a.3.3 0 0 1-.09-.15.34.34 0 0 0-.09-.13.12.12 0 0 0-.12 0h-.43a.17.17 0 0 0 0-.13.2.2 0 0 1 0-.15s-.06 0-.08-.05a.22.22 0 0 0-.08-.1.12.12 0 0 0-.08 0 .22.22 0 0 0-.16 0 .29.29 0 0 1-.16 0 .59.59 0 0 1-.15-.11.27.27 0 0 1-.13-.22v-.18a.54.54 0 0 1 0-.14.45.45 0 0 1 .09-.11.56.56 0 0 0 0-.12.34.34 0 0 0 0-.14l-.07-.06-.27-.09a.68.68 0 0 1 .07-.14h.16v-.23h-.08a.34.34 0 0 0-.14-.08.12.12 0 0 0-.08.05.08.08 0 0 0-.07 0c-.06 0-.1.09-.15.12a.08.08 0 0 1-.07 0 .79.79 0 0 0-.21 0 .2.2 0 0 0-.08.1.56.56 0 0 0-.08.12l-.06-.08a.18.18 0 0 0 0-.12.16.16 0 0 0-.12-.07 1.41 1.41 0 0 0-.2.19.06.06 0 0 1-.06 0 .62.62 0 0 0-.08.15 1.22 1.22 0 0 0-.29.07.13.13 0 0 1 0 .11 1.2 1.2 0 0 0 0 .14.33.33 0 0 1-.06.11h-.05a.14.14 0 0 0-.11 0 .18.18 0 0 1-.06.06H116a.45.45 0 0 1-.15 0 .1.1 0 0 0 0-.08v-.05a.42.42 0 0 1 0 .14.5.5 0 0 0 0 .12v.31c0 .07 0 0 0 0h-.08a2 2 0 0 1 0 .48h-.16a.68.68 0 0 1 0 .24.69.69 0 0 0 0 .24.12.12 0 0 1 0 .12.82.82 0 0 0 0 .27v.22a.2.2 0 0 0-.11 0 .89.89 0 0 1-.06.34.21.21 0 0 1 0 .12.88.88 0 0 0 0 .12.72.72 0 0 0 0 .12.5.5 0 0 1 0 .24v.15a.18.18 0 0 0 0 .12 1.19 1.19 0 0 1 0 .12 1.16 1.16 0 0 0 0 .13v.12a.06.06 0 0 0-.05 0v.68a.12.12 0 0 0 0 .1v.2a.08.08 0 0 1 .06 0 .24.24 0 0 0 0 .12v.99a1.15 1.15 0 0 1 0 .12.48.48 0 0 1 0 .1.55.55 0 0 0 0 .1.24.24 0 0 0 0 .12v.32a2.48 2.48 0 0 0 0 .25.09.09 0 0 0 0 .07v.12a.22.22 0 0 0 0 .07.46.46 0 0 0 0 .1v.07a.53.53 0 0 0 0 .22.17.17 0 0 1 0 .07.88.88 0 0 0 0 .34.82.82 0 0 0 0 .12.19.19 0 0 0 .06.09 1 1 0 0 0 .09.16.19.19 0 0 0 .09.06.32.32 0 0 1 0 .12.2.2 0 0 1 0 .12.77.77 0 0 0 0 .12v.13a.33.33 0 0 0 .05.14.82.82 0 0 0 .11.18.33.33 0 0 1 .06.09.08.08 0 0 0 .07 0v-.08a1 1 0 0 0 0-.12h.09l.06.06a.29.29 0 0 1 .13 0 .21.21 0 0 0 0 .13.23.23 0 0 0 .13.06.57.57 0 0 0 .08 0h.05a.35.35 0 0 0 0-.1v-.08a.07.07 0 0 1 0-.08h.12a1 1 0 0 1 .12.06 1.15 1.15 0 0 0 .06-.11.38.38 0 0 1 .16 0 .1.1 0 0 1 .11.07 1.08 1.08 0 0 0 0 .13l.06.12a.2.2 0 0 0 0 .13 1.35 1.35 0 0 0 0 .13.41.41 0 0 1 .08.1h.08l.62.16.05.38v.38a.63.63 0 0 1 0 .11.19.19 0 0 1 0 .13.21.21 0 0 0 0 .1 2.15 2.15 0 0 0 .05.39V47h-.07a.26.26 0 0 0 0 .11l.09.09a.4.4 0 0 1 .17.15 1.36 1.36 0 0 1 .06.24.8.8 0 0 0 .07.14.18.18 0 0 0 .08 0 .48.48 0 0 1 .09.09.37.37 0 0 0 0 .13c.06.12.13.19.2.31l.06.12c.05.1.11.19.15.27s.06.1.07.14 0 .16.06.27a2.58 2.58 0 0 0 .1.25c0 .06.07.09.09.13a.33.33 0 0 1 0 .12.72.72 0 0 0 0 .11 1 1 0 0 0 .1.25.3.3 0 0 0 .09.08.85.85 0 0 1 0 .18.93.93 0 0 0 0 .18.28.28 0 0 0 0 .1.62.62 0 0 1 0 .1.29.29 0 0 1-.05.06.37.37 0 0 0 0 .28 1.67 1.67 0 0 1 .06.21.21.21 0 0 0 0 .12l-.05.06a.26.26 0 0 0 0 .09 1 1 0 0 0 .08.22 1.43 1.43 0 0 0 .11.32l.11.14a.47.47 0 0 1 .1.1.19.19 0 0 0 0 .11.43.43 0 0 0 0 .1l.07.12.08.12.07.08a32.36 32.36 0 0 0 5.68-1.43zm19.17-34.72h.33a.06.06 0 0 0 0-.05h-.26zm0-.84h-.77.21v.07l.58.09h.17l.38.06h.43V16h-.13.06a.14.14 0 0 1-.06-.05h-.77zm-.86-.11h.94v-.05h.09l-.36-.06-.06-.06h-1.04.42v.06zm-.11 0H144v.07h.55zm-.72-.45h-.27.38-.09zM131 19.48h-.14v-.08l-.39.07v.05c0 .05 0 0 0 0a1.13 1.13 0 0 1-.07.21h.28a.08.08 0 0 1 .06-.07h.18zm1.62-1.64h-.22a.28.28 0 0 1 0 .12.36.36 0 0 0-.16 0h-.12a.11.11 0 0 0-.08 0h-.24l-.08.05a.08.08 0 0 0-.06 0 .28.28 0 0 0 0 .09h.39a.06.06 0 0 1 .06 0h.12c.02 0 0 0 0 0l-.12.11h1.16v.36h-.07a.42.42 0 0 1 0-.08h-.32v-.32a.07.07 0 0 0 .06 0 .21.21 0 0 1 0-.11h.06l.13-.09h.21l.12-.08h.06c.06 0 0 0 0 0h.07a.35.35 0 0 0 .12-.08h.06a.08.08 0 0 0 .06 0h.78a.09.09 0 0 0 .09 0v-.71h.55a.09.09 0 0 0 .06 0h.74a.34.34 0 0 0 .09 0h.25c.07 0 .09-.05.15-.06h.38l.11-.07h.21-.68a.13.13 0 0 1-.07 0h-1.82l-.1.07h-.43L134 17h-.37a.09.09 0 0 1 0 .08h-.34a.16.16 0 0 1-.1.08.16.16 0 0 0-.08 0v.07h-.54a.11.11 0 0 0-.09.08h.27l-.05.06a.3.3 0 0 1-.17 0h.11zm5-.38h.45a.08.08 0 0 0 .06 0h-.41l-.15.07h.09v-.07zm-1.91-2.15h.51-.6zm-.72.08h-.2.21a.11.11 0 0 0 .07 0h.48a.06.06 0 0 1-.06 0H135zm-.18.22h-.24.33-.1zm-1 .1v.07h.33v.05h.19a.07.07 0 0 1 0-.07h.24l-.45.06h-.35zm-.83.15h.98s-.05 0 0 0a.14.14 0 0 1 .11 0h.17a.3.3 0 0 0 .15 0h.14-.34.21-1.54zm-1 .06H131a.11.11 0 0 0 0 .06.18.18 0 0 0 .11 0h.65-.19v.05h.36L132 16h.42-.14v-.07h-.53zM124 19.28l-.27.21h.12zm-6.68 8.51l-.07.1-.08.13v-.07a.08.08 0 0 1 0-.07v-.18.06zm-.71 2.79h.08a.4.4 0 0 1 0-.16h.36a.35.35 0 0 1 0-.06s0 .06 0 0a.07.07 0 0 0 .06 0v-.06a.09.09 0 0 1 0-.07v-.49a.24.24 0 0 1 0-.07h.06v-.14h.06v-.24h-.05v.12a.17.17 0 0 1 0-.05v-.19h-.08v-.52h-.05c-.05 0 0 0 0 0a.09.09 0 0 1 0-.05v-.19a2.21 2.21 0 0 1 .07-.21l-.26.17v-.07a.09.09 0 0 1 0-.07v-.06l-.1.06v.35l-.06.05v.06a.92.92 0 0 1 0 .1v.32a.07.07 0 0 1 0-.07V29v.2l.12-.08v-.07.08a.52.52 0 0 1 0 .09.32.32 0 0 0 0 .08v.11a.29.29 0 0 1 0 .1v.06h-.06v.15l.07-.05a.1.1 0 0 1 0 .07.23.23 0 0 1 0 .07l.17.19a.22.22 0 0 0 0-.06h.05v.05a.08.08 0 0 1 0 .07.31.31 0 0 1-.06 0 .09.09 0 0 1 0 .07l-.06.06a.84.84 0 0 1 0 .1v.21zm.26-1.31a.31.31 0 0 0 .07-.13V29l-.06.05v.1a.48.48 0 0 0 0 .07.11.11 0 0 1 0 .1.24.24 0 0 1-.05.06l-.11.36a.07.07 0 0 0 .05 0 .26.26 0 0 1 0 .17v.07a.16.16 0 0 1 0 .12.18.18 0 0 1 0-.06v-.13l.2-.13a.52.52 0 0 1 0-.07v-.1a.16.16 0 0 1 0-.12.6.6 0 0 0 0-.1z" transform="translate(0 -.68)"/><path class="cls-5" d="M123.44 18.4c.15.31.31.62.48.92h.06l.02.12v-.05l.06-.05h.15l.09-.13h.07l.12-.09.3-.14-.07.07h.17v.06a.44.44 0 0 0-.11.1h.09l.16-.11.11-.07.11-.05.25-.11.11-.06h-.13l-.11.05v-.07l-.28.12s.07-.08 0-.09h-.08v-.3h-.1.09-.08l-.08.06.31-.21.21-.1h.29l.11-.05h.06l.08-.06.1-.16.11-.06h.06l.1-.07h.23-.18a.3.3 0 0 0-.11.06h-.26l-.13.08h-.07a25 25 0 0 1 30.07 2.36l-.2-.11.06.08v.15l.05.05h.12l.15.08h.15l.14.11.11.06h.07q.73.69 1.39 1.43l-.05-.05v.02h-.07l-.12-.19-.09-.09h-.07l-.08-.06h-.06l-.08-.06-.24-.26-.08-.06v.07l-.2-.11h-.08v.06l.05.05v.12l-.08-.06h-.05l-.11-.07v.06h.06a.23.23 0 0 1 .08.12l-.11-.09h-.05l-.05-.05h-.06v-.05h-.21l-.13-.11-.11-.06-.05-.05a.29.29 0 0 0-.14-.1.27.27 0 0 1 .05.09l.06.11v.08l-.23-.11a.35.35 0 0 0-.08-.12h-.06l-.23-.25h-.06l-.13-.11h-.05a.45.45 0 0 1-.12-.12v-.06a.2.2 0 0 1 0-.07.18.18 0 0 0-.05-.09.12.12 0 0 1-.05-.09v-.07l-.05-.05h-.06l-.08-.06h-.26A.54.54 0 0 1 154 20h-.11l-.13-.07h-.05l-.12-.08h-.26l.08.09h.1l-.32-.12h-.05a.22.22 0 0 1-.13 0l-.15-.08h-.08l-.13-.06-.08-.06h-.17a.22.22 0 0 1-.06-.08.19.19 0 0 0 0-.07l-.08-.05h-.29l-.25-.08h-.1l-.39-.34h-.36v-.11h-.29l-.08-.05h.3-.56l-.34-.09h-.05a.16.16 0 0 1 .07.07h-.66.09a1 1 0 0 1 .11 0h.07a.14.14 0 0 0 .09 0h.8a.05.05 0 0 0 0-.06l.28.08a.08.08 0 0 0 0-.05.23.23 0 0 0-.07 0h-.06l-.05-.05-.08-.05h-.17a.29.29 0 0 1-.06-.1l-.4-.11h-.43l-.12-.08H149a.2.2 0 0 0 0 .09h-.25.07l-.3-.08h-.32a.1.1 0 0 1 .09 0h.05v-.06l-.65-.15h-.47v.06H147h.07l-.58-.11v.05h-2.19a.07.07 0 0 1-.08 0h-.92a.05.05 0 0 0-.05 0h-.38a.2.2 0 0 0 .08.08h.28v.07H141a.26.26 0 0 0-.13 0h.2v-.73a.44.44 0 0 0 .17 0h.27a.09.09 0 0 1 .06 0 .11.11 0 0 1 .08 0v.08s-.07.06-.16.05h-.95a.31.31 0 0 1-.15 0h-.19a.06.06 0 0 0-.07 0h-.09a.47.47 0 0 0-.2 0c-.07 0 0 0 0 0h.34-.21a.29.29 0 0 0-.06 0h-.29a.19.19 0 0 0 .17.09h.21a.77.77 0 0 1 .21.05.1.1 0 0 1 .06 0h.14a.14.14 0 0 0-.06-.06h-.15a.41.41 0 0 1-.08 0H140a.24.24 0 0 1-.08 0h-.54v-.2a.07.07 0 0 0 .06 0v.03h-.09l-.07-.08h-.13v.29h-.3v.1h-.15a.08.08 0 0 0-.08.09.22.22 0 0 0 .15.11l.23.04v.17a.1.1 0 0 0-.08.06v.1a.52.52 0 0 0 .06.09h.56a.15.15 0 0 1 .08 0h.14l.14.06h.14s0 .06.08.09l.08.22h.08a.1.1 0 0 1 .06 0 .17.17 0 0 1 0 .09h-.14a.1.1 0 0 0 .08 0h.08a.06.06 0 0 0 .06 0h.29-.58a.14.14 0 0 1 0-.12v.12A.15.15 0 0 0 140 19h-.96a.35.35 0 0 1 .06.11.27.27 0 0 1 0 .12.26.26 0 0 1-.08 0h-.24a.26.26 0 0 0 0 .12h-.13l-.23.09a.48.48 0 0 0-.15.06l-.05.05h-1.01l.07-.05a.06.06 0 0 1 .05-.05h.58a.29.29 0 0 0 .08 0h.08a.09.09 0 0 0 .08 0 .23.23 0 0 1 .07-.1h.08a.48.48 0 0 0 .13-.09.6.6 0 0 0 .08 0h.08v-.06a1 1 0 0 1 .06-.1v-.2h-.32v-.11a.24.24 0 0 1 0-.11v-.1a.15.15 0 0 1 0-.09.29.29 0 0 0 0-.13.2.2 0 0 0-.07-.08.15.15 0 0 0 0-.08 1 1 0 0 0 0-.24h.21a.86.86 0 0 1 0-.23h-.17a.11.11 0 0 1-.07 0h-1.02a.21.21 0 0 0 0 .11.24.24 0 0 1-.08.08h-.06l-.14.09a.09.09 0 0 1 0 .08v.05h-.35v.11a.09.09 0 0 0 .06 0 .3.3 0 0 1 .11.07.1.1 0 0 1 0 .08.1.1 0 0 1 0 .09.1.1 0 0 1-.08 0h-.08v.15h.28a.17.17 0 0 0 .09 0h.06l.13.07h.06v.2a.16.16 0 0 1-.08 0h-.43a.12.12 0 0 1-.08-.15h-.22a.5.5 0 0 1-.21 0h-.49v-.05h-1.13a.39.39 0 0 1-.14 0h-.67a.07.07 0 0 0-.08 0 .07.07 0 0 0 0 .06h.07a.05.05 0 0 1 .05 0 .05.05 0 0 1 0 .05h.34v.1h.29a.26.26 0 0 1-.12.09h-.21v.05a.18.18 0 0 0-.08 0h-.09a.27.27 0 0 1 0-.1v-.09h-.25v.05a.47.47 0 0 1-.14 0h-.3l-.07.05h-.5a.27.27 0 0 0 0 .11h-.26c-.05 0 0 0 0 0h-.07a.35.35 0 0 1 0-.05l.1-.1h-.24a.26.26 0 0 0 0 .05h-.28a.18.18 0 0 0-.07.06l-.13.06h-.11a.73.73 0 0 0-.21 0h-.06v.06h-.4l-.09.05-.14.1h-.09l-.25.05-.09.06s.06 0 0 0a.08.08 0 0 1 0 .07l-.15.07a.16.16 0 0 0-.07 0h-.21a.61.61 0 0 0-.11.06h-.08a.06.06 0 0 1-.06 0 .1.1 0 0 1 0-.06.29.29 0 0 1 0-.11l.35-.07a.52.52 0 0 0 0-.15.06.06 0 0 1-.06 0 1.06 1.06 0 0 0-.14.05h-.2l-.23.21H129a.19.19 0 0 0 0 .1h.17l-.09.28v.05h-.07v.05H129s.06 0 0 0a.07.07 0 0 0-.07 0 .2.2 0 0 1 0 .14h-.26v-.05h-.15a.26.26 0 0 1-.07 0h-.26v.11h-.41v.05h-.19a.58.58 0 0 0 0 .1h.11a.06.06 0 0 1 0 .08.07.07 0 0 1 0 .07h-.79a.06.06 0 0 1 0-.06h-.06l-.06.06a.11.11 0 0 1-.07 0 .13.13 0 0 0-.08.08.21.21 0 0 0 0 .06h.05a.19.19 0 0 1 0 .05h.07a.93.93 0 0 1 .13 0 .19.19 0 0 1 .11 0 .34.34 0 0 1-.06.06l-.31.08a.05.05 0 0 1 0 .05h-.11a.33.33 0 0 0-.15 0h-.07a.06.06 0 0 1-.07-.06.76.76 0 0 0 0-.15h-.18a.89.89 0 0 1 .06-.17 1.66 1.66 0 0 1 .09-.21.12.12 0 0 0 0-.09.35.35 0 0 0-.17 0c-.07 0 0 0 0 0v-.07h-.2v-.06h.18a.12.12 0 0 0 .1 0 1.08 1.08 0 0 0 .2-.06c.07 0 0 0 0 0h.1l.4-.11h.62a.52.52 0 0 0 .13-.07h.18l.09-.06h.14v-.05a.21.21 0 0 0 0-.1.33.33 0 0 0 0-.13.31.31 0 0 0 0-.07h-.36a.11.11 0 0 1-.1 0h-.89a.23.23 0 0 1-.06-.05h-.16a.08.08 0 0 1 0 .07h-.18v-.05a.3.3 0 0 0 .06-.08h-.1v-.05l-.16.05h-.06a.28.28 0 0 1-.07.06h-.11l-.13.06h-.16.11v-.09.88h-.3a.52.52 0 0 0-.05.12l-.13.05a.18.18 0 0 1 0-.08v-.05h.05l-.34.13a.15.15 0 0 1-.05.12c-.05.06 0 0 0 0h-.05v-.06h.07-.09A31.22 31.22 0 0 0 156.22 35c0-.06-.05-.07-.09-.14a.44.44 0 0 0-.12-.17.24.24 0 0 0-.07-.07h-.07l-.07-.07v-.03a.79.79 0 0 0 0-.09.06.06 0 0 1 0-.06.18.18 0 0 0 .05-.09s.06 0 .06-.05a1.15 1.15 0 0 0 0-.14v-.16h.16a.06.06 0 0 0 .05-.05v-.07a.07.07 0 0 1 0-.06h.11a.32.32 0 0 0 .05 0h.23a1.8 1.8 0 0 0 0-.19.51.51 0 0 0 0-.07h-.28v-.06l-.11-.17H156v.23a.33.33 0 0 0 0 .06h-.19a1.84 1.84 0 0 0 0-.42h-.38a.19.19 0 0 1-.12-.17.36.36 0 0 1 0-.13.12.12 0 0 1 0-.07.08.08 0 0 1 .05-.08h.36v-.19a.07.07 0 0 1 0-.07.32.32 0 0 1 0-.07h.13a.14.14 0 0 0 .11 0h.05a.36.36 0 0 1 0-.07.13.13 0 0 0 .05-.06.07.07 0 0 1 0-.07l.06-.06a.1.1 0 0 1 .18-.09.09.09 0 0 1 .06.05v.14a.23.23 0 0 0-.05 0 .84.84 0 0 0 0 .14.27.27 0 0 1-.08.15v.07h-.06a.1.1 0 0 0 0 .08v.07h.06a.07.07 0 0 1 0-.07h.28a.22.22 0 0 0 .07 0 .48.48 0 0 0 .08-.12v-.07h.06s.11.08.17.1a.06.06 0 0 0 .06 0 .29.29 0 0 1 .11.06h.06a.27.27 0 0 1 0 .14V33a.7.7 0 0 0 0 .07.39.39 0 0 0 0 .08.39.39 0 0 0 0 .09.38.38 0 0 0 0 .17h.11a.13.13 0 0 0 .06-.06h.05a.33.33 0 0 1 .11.15v.38a1 1 0 0 1 .06.1v.38a.11.11 0 0 1 0 .09.21.21 0 0 0 0 .08.2.2 0 0 0 0 .08v.12l.59-.13h.06a.27.27 0 0 0 0-.08v-.27a.27.27 0 0 1 0-.08v-.28a.18.18 0 0 1-.13-.07.14.14 0 0 1 0-.09v-.22a.17.17 0 0 0-.05 0l-.06-.07a.13.13 0 0 0 0-.07.09.09 0 0 1-.05 0l.13-.16v-.14a.5.5 0 0 1 0-.12.63.63 0 0 1 0-.18.06.06 0 0 1 0-.07v-.13h.3c0-.31 0-.31-.07-.61v-.07a.29.29 0 0 1 0-.07.05.05 0 0 1 0-.05s.06-.06.08-.13 0 0 0-.05a.6.6 0 0 1 .06-.11h.05a2.89 2.89 0 0 1 .21.21h.09a.06.06 0 0 1 0-.05.16.16 0 0 1 0-.05h.09a.27.27 0 0 0 0-.07.36.36 0 0 1 .08-.12.34.34 0 0 0 0-.07c0-.06 0-.11.08-.17a.21.21 0 0 0 0-.11v-.43a.48.48 0 0 0 0-.12v-.05a.23.23 0 0 1 .06-.1v-.05a.27.27 0 0 0 0-.11v-.49a.33.33 0 0 1 0-.07v-.13a.82.82 0 0 0 0-.16v-.17a.34.34 0 0 0 0-.07v-.42a.09.09 0 0 0 0 .06v.05a.24.24 0 0 1 0 .08v.17s0 .11.07.17 0 .16.05.25a1.79 1.79 0 0 1 0 .21v.07a.48.48 0 0 0 0 .09V30a1.51 1.51 0 0 0 .07.19 1.1 1.1 0 0 1 .06.17.27.27 0 0 1 0 .09v.18a.12.12 0 0 0 0 .09h.1v-.06a.28.28 0 0 0 0 .13v.06a.18.18 0 0 0 .11.08v-.04a.06.06 0 0 0 0-.06v-.13a.2.2 0 0 0-.06-.08v-.06a.1.1 0 0 1 0-.06.26.26 0 0 0 0-.13.15.15 0 0 1 0-.08.6.6 0 0 1 0-.13.43.43 0 0 1 0-.11.6.6 0 0 1 0-.09.72.72 0 0 1 0-.07.2.2 0 0 1 .08.07.59.59 0 0 0 .09.11v-.21a.06.06 0 0 0 0-.06 1 1 0 0 0-.05-.13.1.1 0 0 1 0-.07.43.43 0 0 0 0-.07v-.08a.29.29 0 0 0 0-.16v-.19a1.42 1.42 0 0 1-.09-.14.08.08 0 0 0 0-.06.11.11 0 0 0 0-.07.08.08 0 0 1 0-.07v-.21a.08.08 0 0 0 0-.07v-.06a.56.56 0 0 1 0-.11.49.49 0 0 0 .54-.21.34.34 0 0 0 0-.11.5.5 0 0 0 0-.11h-.08l.11.41h-.06c-.06 0 0 0 0 0a.09.09 0 0 0 0 .06.36.36 0 0 0 0 .07.09.09 0 0 0 0 .06v.11h-.06v-.35a.48.48 0 0 1 0-.08v-.06l-.28-.1h-.09v-.08a1.43 1.43 0 0 1-.14-.18l-.12-.06.08.3-.17-.06v-.19a1.37 1.37 0 0 0-.12-.21v.06a.75.75 0 0 0 0 .11v.05h-.22v-.23a.48.48 0 0 0-.11-.17s0 .05 0 0h-.14a.22.22 0 0 1 0-.11v-.1h.07v-.03s0-.06 0 0h.08a.62.62 0 0 1-.05-.21v-.11h.06v-.2a.19.19 0 0 0 0-.05v-.2a.06.06 0 0 1 .06 0h.08s0-.06 0 0a.3.3 0 0 0 .09.06.15.15 0 0 1 .09 0v.05l.09.09h.05l.39.22v-.2c0-.01 0 0 0 0l.06.08.05.05h.06l.05.08v.14a.31.31 0 0 0 0 .09l.13.07V27a1.21 1.21 0 0 0 .1.14v.06-.1l.09.07v-.62.13l.19.35.21.41a.34.34 0 0 0 0 .11v.08h-.08a.78.78 0 0 0 0 .09.53.53 0 0 1 0 .12v.21a.39.39 0 0 0 0 .12.16.16 0 0 1 0 .08.51.51 0 0 0 0 .1v.1c.06.21.12.35.18.56v.1l.12.26L162 30a.93.93 0 0 0 0-.17v-.63l.15.1v-.14L162 29v-.42.06-.1a24.82 24.82 0 0 1 1.56 4.51l1-.42a26 26 0 0 0-41.15-14.32zm1.19 2.17h.05v.09-.06zm35.09 13.95a.1.1 0 0 0 .08 0 .28.28 0 0 0 0-.13v-.2a.48.48 0 0 0 0 .13.16.16 0 0 0 0 .08l-.23.07zm.28-.08a.94.94 0 0 0 0-.26.4.4 0 0 1 .15 0v-.11a.48.48 0 0 1 0-.09 1 1 0 0 1 0 .13v.13a.26.26 0 0 0 0-.1v-.08a.65.65 0 0 1 0-.12v-.16a.86.86 0 0 0 0-.15v-.49a.35.35 0 0 1 0-.07 1 1 0 0 1 0-.13.34.34 0 0 1 .14 0v-.29a.3.3 0 0 1 0-.11.21.21 0 0 1 0-.15.58.58 0 0 1 0-.07v-.15.06a.09.09 0 0 0 0 .08.61.61 0 0 1 0-.18V32a.19.19 0 0 0 0-.05v-.09a.22.22 0 0 0 0-.07v-.17a.41.41 0 0 0 0-.16v-.05l.05.05.12.08v.12l.07.14v.06a.62.62 0 0 0 .47.14h.05v-.05h.24a.1.1 0 0 0 .05 0v-.1a.06.06 0 0 1 0-.06.66.66 0 0 1 0 .07v.24h.06a.12.12 0 0 0-.09 0h-.11v.05a.52.52 0 0 0 0 .07v.11a.48.48 0 0 1 0 .07h-.1v.05a.64.64 0 0 0-.19-.06 1.43 1.43 0 0 0 0 .2c0 .09 0 0 0 0h-.08a.09.09 0 0 1-.09 0v-.06c0-.06 0 0 0 0s0-.06-.06-.07a.66.66 0 0 0-.19-.06v.1c0 .07 0 0 .08 0v.27a.15.15 0 0 1 0 .07.79.79 0 0 0 .06.14v.14a.6.6 0 0 1 0 .13.63.63 0 0 1 0 .13v.24a1 1 0 0 1 0 .2.48.48 0 0 0 0 .11v.15l-.66.2zm1.68-2.86a.25.25 0 0 1 0 .11v.07a.24.24 0 0 1-.07-.08v-.06h.06zm.31-1.2v.2a.16.16 0 0 0 0-.08v-.14zm-5.37-9.12h.06c.06 0 0 0 0 0l.11.07.21.13.05.05v.07h-.06l-.08-.06.09-.03h-.09l-.08-.06-.09-.06v-.12zm.06-.1l-.08-.06-.14-.1h.07l.08.06zm-1.16-1h-.12.06v.05zm.12.31l.05.05.09.09h.06v.06l-.18-.1v-.07l-.11-.11zM148.7 17h-.23a.1.1 0 0 1-.06 0h-.18.42a.33.33 0 0 0 .06 0zm-3.24-.35h.26a.11.11 0 0 1 0 .05h-.25zm1.21 0s-.08-.05-.13-.07h.21v-.1h.36a.21.21 0 0 1 .09 0h.06-.05.22l.19.05h.07a.05.05 0 0 0 0 .06l.31.09h-.65l-.31-.06h-.29a.18.18 0 0 1-.13 0zm-1.17-.8h.77a.2.2 0 0 1 .06.05h-.06.14v.06h-.31l-.38-.06h-.17l-.55.1v-.11h-.24.72v-.07zm-.86-.11h-.42 1.1a.16.16 0 0 1 .06.06l.36.06h-.11v-.06h-.94v-.09zm-.11 0h-.46v-.11h.54v.11zm-.72-.45h.09-.38.27zM131 19.46h-.18a.13.13 0 0 0-.06.07h-.28a1.13 1.13 0 0 0 .07-.21v-.05l.39-.07v.08h.06zm1.62-1.64h.17c.04 0 0 0 0 0l.05-.06h-.27a.24.24 0 0 1 .09-.08h.52v-.32a.12.12 0 0 0 .08 0 1.11 1.11 0 0 1 .1-.08h.34v-.08h.88l.1-.07h.9a.1.1 0 0 0 .07 0h1.57-.02l-.11.07h-.38a1 1 0 0 0-.15.06h-.25a.23.23 0 0 0-.09 0H135v.05h-.09a.09.09 0 0 1-.06 0h-.72a.08.08 0 0 0-.06 0h-.06a.35.35 0 0 1-.12.08h-.07a.08.08 0 0 0-.06 0l-.12.08h-.21l-.13.09h-.06a.16.16 0 0 1 0 .11h-.06v.05h.32a.44.44 0 0 0 0 .08.08.08 0 0 0 .07 0v.09h-1.16l.12-.11a.31.31 0 0 1-.12 0h-.71a.09.09 0 0 1 0-.09.41.41 0 0 0 .06 0l.08-.05h.18a.09.09 0 0 0 .08 0V18h.12a.36.36 0 0 0 .16 0 .28.28 0 0 0 0-.12h.11zm5-.38a.14.14 0 0 1-.09 0l.15-.07h.41a.09.09 0 0 1-.06 0h-.43v.08zm-1.91-2.15h.6-.46zm-.72.08h.47-.46a.11.11 0 0 0-.07 0h-.28.35zm-.18.22h.1-.36.26zm-1 .1h.41l.45-.06h-.24a.07.07 0 0 1 0 .07h-.19v-.05h-.33v-.07zm-.83.15h-.08 1.5-.21.36-.14a.3.3 0 0 1-.15 0h-.17a.14.14 0 0 0-.11 0h-1.05zm-1 .06h.49v.07h.14-.25L132 16h-.49v-.05h.19-.7a.06.06 0 0 1 0-.06h.88zM162 28.46a.42.42 0 0 0 0-.12z" transform="translate(0 -.68)"/><circle class="cls-6" cx="139.32" cy="38.35" r="25.02"/><path class="cls-7" d="M159.61 22.69c-1.63 3.21-10.09 5.66-20.27 5.66s-18.64-2.44-20.27-5.66a26 26 0 0 1 40.54 0z" transform="translate(0 -.68)"/><path class="cls-8" d="M120.58 7.64h37.48V21.2c0 3.42-8.39 6.21-18.74 6.21s-18.74-2.77-18.74-6.21V7.64z" transform="translate(0 -.68)"/><path d="M122.72 7.64v16.43c-1.36-.86-2.13-1.83-2.13-2.86V7.64h2.13z" transform="translate(0 -.68)"/><path class="cls-9" d="M120.58 15.89l18.84 3.88 18.65-3.82V6.96h-37.49v8.93z"/><path class="cls-10" d="M139.32 0l34.47 9.13-34.47 9.13-34.46-9.13L139.32 0z"/><path class="cls-11" d="M173.79 9.13v1.17l-34.47 9.13-34.46-9.13V9.13l34.46 9.13 34.47-9.13z"/><path class="cls-12" d="M126.86 4c-11.15 5.9 8.89 6.59 10.18 14.35l-32.18-8.54z" transform="translate(0 -.68)"/><path d="M139.29 9.22a.59.59 0 0 1 .15 1.16h-.07l-30.14 2.14V25l2.12 10.42c0 .29-1.22.53-2.72.53s-2.72-.23-2.72-.53L108.06 25V12a.59.59 0 0 1 .54-.58z" transform="translate(0 -.68)"/><path d="M109.23 25l.8 10a2.06 2.06 0 0 1 1.32.41z" transform="translate(0 -.68)"/><path class="cls-13" d="M108.06 25l-.8 10a2.06 2.06 0 0 0-1.32.41z" transform="translate(0 -.68)"/></svg>